<svg width="6183" height="6743" viewBox="0 0 6183 6743" fill="none" xmlns="http://www.w3.org/2000/svg">
<path d="M2826.54 1340.54C2656.33 1775.7 2349.96 2447.54 2114.29 2905.61L1923.14 3277.16L2014.79 3440.03C2174.52 3722.5 2365.67 4101.68 2423.28 4254.37L2478.27 4401.97H3101.49H3722.08L3756.12 4305.27C3808.49 4147.49 3981.32 3793.76 4135.81 3534.19L4279.83 3289.88L3994.41 2719.84C3703.75 2139.62 3525.69 1745.17 3345.01 1279.46C3269.07 1083.51 3232.41 1017.34 3198.37 1017.34C3153.86 1017.34 3151.24 1078.42 3151.24 1946.21V2875.07L3214.08 2900.52C3313.59 2936.15 3386.91 3048.12 3386.91 3160.09C3386.91 3292.43 3253.36 3434.94 3127.67 3434.94C2960.08 3434.94 2810.83 3302.61 2810.83 3155.01C2810.83 3068.48 2884.15 2953.96 2967.94 2913.25C3036.02 2880.16 3046.5 2859.8 3046.5 2765.65C3049.12 2516.25 3049.12 1078.42 3049.12 1047.88C3046.5 1032.61 3025.55 1017.34 2999.36 1017.34C2965.32 1017.34 2923.43 1096.23 2826.54 1340.54Z" fill="white"/>
<path d="M4866.39 3465.45C4764.27 3521.44 4714.52 3651.23 4751.18 3773.38C4772.12 3849.72 4766.89 3862.45 4617.63 4007.5L4460.52 4162.74V4429.95V4697.15L4120.11 5030.53L3779.7 5366.45V5824.52C3779.7 6259.68 3782.31 6282.59 3832.07 6297.85C3860.87 6305.49 3894.91 6305.49 3910.62 6297.85C3926.33 6287.68 3936.81 6117.17 3936.81 5865.23V5450.42L4274.6 5127.23L4612.39 4804.04L4622.87 4513.93L4633.34 4221.27L4787.84 4071.12C4905.67 3956.61 4960.66 3918.43 5018.27 3918.43C5062.78 3918.43 5115.15 3892.99 5154.43 3852.27C5340.35 3656.32 5102.06 3335.67 4866.39 3465.45ZM5073.26 3646.14C5096.82 3681.76 5091.59 3699.58 5054.93 3727.57C4968.52 3788.65 4869.01 3699.58 4934.47 3620.69C4973.75 3574.88 5036.6 3587.61 5073.26 3646.14Z" fill="white"/>
<path d="M1197.8 4132.2C1045.92 4279.8 1087.82 4483.39 1284.21 4557.19C1320.87 4569.91 1370.62 4575 1396.8 4567.37C1428.23 4557.19 1595.81 4707.33 2006.93 5111.96L2575.15 5671.82V5964.48C2575.15 6229.14 2580.39 6259.68 2624.9 6285.13C2653.71 6297.85 2695.6 6302.94 2716.55 6295.31C2750.59 6282.59 2758.45 6226.6 2758.45 5951.76V5623.47L2182.37 5040.71C1614.14 4468.12 1608.91 4460.48 1624.62 4368.87C1645.57 4233.99 1614.14 4152.56 1519.88 4096.57C1394.19 4020.23 1302.54 4030.41 1197.8 4132.2ZM1433.46 4256.9C1462.27 4277.25 1472.74 4305.25 1459.65 4333.24C1436.08 4396.86 1284.21 4381.59 1271.11 4315.43C1255.4 4233.99 1352.29 4198.36 1433.46 4256.9Z" fill="white"/>
<path d="M2428.5 4564.82C2420.65 4582.64 2418.03 4648.8 2423.26 4709.88L2431.12 4821.85L3083.14 4829.48C3567.57 4834.57 3743.01 4826.94 3771.82 4804.04C3818.95 4765.86 3803.24 4585.18 3748.25 4552.1C3729.92 4539.37 3428.79 4529.19 3077.9 4529.19C2559.43 4529.19 2438.97 4536.83 2428.5 4564.82Z" fill="white"/>
<path d="M4198.17 5969.61C4198.49 5960.02 4198.66 5949.84 4198.66 5939.03V5620.93L4541.69 5279.92C4842.82 4979.63 4884.72 4931.28 4869.01 4872.75C4848.06 4796.4 4908.28 4646.26 4976.37 4608.08C5036.59 4575 5183.23 4572.46 5248.7 4605.54C5308.92 4638.62 5377 4760.78 5377 4837.12C5377 4865.11 5337.73 4928.73 5287.97 4977.09C5217.27 5045.8 5177.99 5063.61 5099.44 5063.61C5002.55 5063.61 4978.99 5081.42 4690.95 5384.26L4381.96 5704.91V5982.3C4381.96 5982.3 4160.59 5805.45 4213.5 5982.3C4208.05 5977.48 4202.95 5973.27 4198.17 5969.61ZM4198.17 5969.61C4190.23 6208.43 4088.22 6080.23 4128.5 6102.25C4156.16 6116.91 4083.32 5881.74 4198.17 5969.61ZM5141.33 4872.75C5041.83 4903.29 4999.93 4824.4 5075.87 4748.05C5130.86 4697.15 5193.71 4722.6 5193.71 4796.4C5193.71 4834.57 5172.76 4862.57 5141.33 4872.75Z" fill="white"/>
<path d="M4198.17 5969.61C4198.49 5960.02 4198.66 5949.84 4198.66 5939.03V5620.93L4541.69 5279.92C4842.82 4979.63 4884.72 4931.28 4869.01 4872.75C4848.06 4796.4 4908.28 4646.26 4976.37 4608.08C5036.59 4575 5183.23 4572.46 5248.7 4605.54C5308.92 4638.62 5377 4760.78 5377 4837.12C5377 4865.11 5337.73 4928.73 5287.97 4977.09C5217.27 5045.8 5177.99 5063.61 5099.44 5063.61C5002.55 5063.61 4978.99 5081.42 4690.95 5384.26L4381.96 5704.91V5982.3C4381.96 5982.3 4160.59 5805.45 4213.5 5982.3C4208.05 5977.48 4202.95 5973.27 4198.17 5969.61ZM4198.17 5969.61C4190.23 6208.43 4088.22 6080.23 4128.5 6102.25C4156.16 6116.91 4083.32 5881.74 4198.17 5969.61ZM5141.33 4872.75C5041.83 4903.29 4999.93 4824.4 5075.87 4748.05C5130.86 4697.15 5193.71 4722.6 5193.71 4796.4C5193.71 4834.57 5172.76 4862.57 5141.33 4872.75Z" stroke="white"/>
<path d="M2601.53 5106.69C2601.53 5243.34 2609.38 5260.42 2784.77 5476.78L2968 5701.67V6071.75V6441.84H3282.12H3596.24V5701.67V4961.51H3098.89H2601.53V5106.69Z" fill="white"/>
<mask id="path-7-outside-1_39_3" maskUnits="userSpaceOnUse" x="0" y="-0.30957" width="6184" height="6744" fill="black">
<rect fill="white" y="-0.30957" width="6184" height="6744"/>
<path d="M2971.25 39.0189C2907.31 51.3877 2871.85 60.9455 2864.3 68.2544C2860.81 71.0655 2854.99 73.3143 2850.93 73.3143C2831.74 73.3143 2656.2 163.27 2575.98 213.869C2571.33 217.243 2563.2 221.178 2558.54 223.427C2553.89 225.676 2504.49 253.225 2448.68 285.271C2393.46 317.318 2346.96 343.18 2345.8 343.18C2345.22 343.18 2332.43 350.489 2318.48 360.047C2303.95 369.042 2290.58 376.913 2288.25 376.913C2286.51 376.913 2273.14 384.222 2259.19 393.78C2245.24 402.776 2232.45 410.647 2230.12 410.647C2228.38 410.647 2216.17 417.393 2202.22 425.827C2188.85 434.26 2172.58 443.818 2166.18 447.191C2140.61 460.684 1804.63 654.65 1784.87 667.019C1773.82 674.328 1762.2 680.512 1759.87 680.512C1757.55 680.512 1743.6 687.821 1729.07 697.379C1715.12 706.375 1702.33 714.246 1701.16 714.246C1698.84 714.246 1662.22 735.048 1512.25 821.068C1507.6 823.879 1476.21 841.87 1442.5 860.985C1408.78 880.101 1374.49 900.341 1365.77 905.963C1357.05 912.147 1348.33 916.645 1346.01 916.645C1344.26 916.645 1330.89 923.954 1316.36 933.512C1302.41 942.507 1289.62 950.378 1288.46 950.378C1286.72 950.378 1246.61 972.867 1198.36 1000.98C1150.12 1028.53 1110.01 1051.58 1108.26 1051.58C1107.1 1051.58 1094.31 1058.89 1080.36 1068.44C1065.83 1077.44 1053.04 1085.31 1051.3 1085.31C1048.97 1085.31 1036.19 1092.62 1022.24 1102.18C1007.7 1111.17 994.335 1119.04 992.591 1119.04C990.266 1119.04 978.059 1125.79 964.108 1134.22C950.739 1142.66 934.463 1152.78 927.488 1156.15C921.094 1159.52 818.79 1218 700.791 1286.02C582.792 1354.05 454.331 1427.7 415.966 1449.63C328.194 1499.67 281.692 1532.28 234.609 1576.69C172.412 1634.6 114.285 1714.44 88.1275 1777.97C81.1522 1794.27 71.8518 1815.07 67.7829 1824.63C63.7139 1833.63 58.4825 1847.68 57.3199 1855.55C55.5761 1863.42 51.5072 1876.92 48.6008 1886.48C30.5813 1936.51 30 1985.43 30 3374.11C30 4580.64 31.1625 4783.03 38.7191 4822.95C43.3693 4848.25 49.7633 4874.11 53.251 4880.3C56.1574 4885.92 59.0637 4896.04 59.0637 4902.23C59.0637 4907.85 62.5514 4920.22 67.2016 4929.21C71.2705 4937.65 83.4773 4962.38 93.9402 4983.75C138.698 5078.76 236.353 5189.52 321.8 5243.49C367.721 5272.73 738.574 5487.5 742.643 5487.5C744.387 5487.5 752.524 5491.99 761.244 5498.18C769.963 5503.8 832.74 5539.78 900.749 5578.01C968.759 5616.25 1031.54 5652.23 1040.26 5657.29C1048.97 5662.91 1060.02 5669.09 1064.67 5671.34C1073.97 5675.28 1240.8 5770.29 1256.49 5779.85C1261.14 5783.23 1269.28 5787.16 1273.93 5789.41C1283.23 5793.35 1479.7 5905.23 1494.81 5914.78C1499.46 5917.6 1513.99 5925.47 1526.78 5932.21C1539.57 5938.96 1561.08 5951.89 1574.45 5960.32C1587.82 5969.32 1600.02 5976.63 1602.35 5976.63C1604.67 5976.63 1626.18 5988.44 1650.59 6003.05C1714.53 6040.16 1847.65 6116.06 1878.45 6132.93C1892.99 6140.24 1908.68 6150.35 1913.91 6154.29C1918.56 6158.79 1924.96 6162.16 1927.28 6162.16C1929.02 6162.16 1965.64 6181.84 2008.08 6206.01C2050.51 6230.75 2135.96 6279.1 2198.15 6313.96C2260.35 6349.38 2358.59 6405.04 2416.13 6438.21C2473.68 6470.82 2530.06 6502.87 2541.11 6509.05C2552.15 6514.67 2583.54 6532.1 2610.28 6547.28C2798.03 6655.79 2886.97 6691.21 3009.03 6706.95C3123.54 6722.13 3252.01 6706.95 3369.42 6664.22C3408.37 6650.17 3506.02 6602.94 3562.99 6569.77C3568.8 6566.4 3611.23 6542.78 3657.15 6516.92C3703.66 6491.06 3748.41 6465.2 3757.13 6459.58C3765.85 6453.39 3774.57 6448.89 3776.32 6448.89C3778.06 6448.89 3796.08 6439.34 3815.84 6426.97C3835.61 6415.16 3888.5 6384.8 3933.26 6359.5C3978.02 6334.2 4018.71 6311.15 4023.36 6308.34C4028.01 6305.53 4042.54 6297.66 4055.33 6290.91C4068.12 6284.16 4089.62 6271.23 4102.99 6262.8C4116.36 6253.8 4128.57 6246.49 4129.73 6246.49C4132.06 6246.49 4256.45 6177.34 4290.74 6156.54C4309.93 6145.3 4451.18 6062.65 4473.84 6049.72C4487.21 6041.85 4515.7 6025.54 4537.2 6013.17C4558.71 6000.8 4587.19 5984.5 4600.56 5977.75C4613.93 5970.44 4673.22 5936.71 4732.51 5902.42C4791.8 5868.68 4844.12 5838.88 4848.77 5836.07C4853.42 5833.26 4888.88 5813.02 4927.24 5790.53C4965.6 5768.05 5003.39 5746.12 5011.52 5741.62C5019.66 5737.69 5034.19 5729.25 5043.49 5723.63C5053.38 5717.45 5065 5710.7 5069.65 5708.45C5074.3 5706.2 5124.29 5678.09 5180.09 5646.04C5235.9 5613.43 5347.5 5549.9 5427.14 5504.36C5879.37 5246.87 5877.04 5248.55 5951.45 5181.09C6002.6 5134.98 6049.68 5075.95 6078.16 5023.1C6089.21 5002.3 6100.83 4982.62 6103.16 4979.25C6110.71 4969.69 6131.64 4899.98 6142.1 4850.5C6150.24 4811.15 6151.4 4652.04 6152.57 3388.73C6153.73 2042.21 6153.15 1968 6143.27 1920.21C6111.3 1765.6 6029.92 1634.6 5904.36 1535.09C5856.12 1497.42 5813.1 1470.43 5697.43 1405.78C5650.93 1379.91 5545.13 1320.32 5462.01 1273.66C5378.89 1226.43 5301.58 1183.14 5290.54 1176.95C5279.49 1171.33 5259.15 1159.52 5245.78 1151.09C5231.83 1142.66 5219.62 1135.91 5218.46 1135.91C5215.55 1135.91 5017.92 1024.03 4999.9 1012.22C4995.25 1008.85 4987.11 1004.91 4982.46 1002.66C4973.16 998.729 4805.75 903.714 4790.64 894.156C4785.99 890.783 4777.85 886.847 4773.2 884.598C4768.55 882.35 4712.75 850.865 4649.39 814.321C4586.61 777.777 4533.14 747.979 4531.39 747.979C4529.65 747.979 4517.44 740.67 4504.07 731.674C4490.7 723.241 4469.19 710.31 4456.41 703.563C4443.62 696.817 4418.62 683.324 4401.19 673.204C4383.75 663.084 4348.87 643.968 4323.88 629.913C4298.88 615.857 4237.27 580.999 4187.28 552.326C4137.29 523.091 4080.32 491.606 4061.14 480.924C4041.96 470.804 3996.04 445.504 3959.42 424.702C3922.8 403.9 3882.11 380.849 3869.32 374.102C3856.53 366.793 3819.33 345.991 3786.2 326.876C3753.06 307.76 3725.16 292.58 3724 292.58C3722.84 292.58 3689.71 274.027 3650.18 251.538C3610.65 229.049 3574.61 208.809 3569.96 206.561C3565.31 204.312 3553.69 197.565 3543.81 191.381C3534.51 185.196 3521.14 177.887 3514.74 174.514C3508.35 171.141 3487.42 159.896 3468.24 149.214C3436.85 131.223 3352.57 90.7432 3322.92 78.9365C3316.53 76.6877 3300.83 70.5032 3288.04 65.4432C3200.85 31.1478 3069.49 20.4656 2971.25 39.0189ZM3165.98 292.58C3212.48 297.64 3253.17 310.571 3311.88 339.245C3356.05 360.047 3365.94 365.669 3491.49 435.947C3536.25 461.246 3624.02 510.16 3686.22 545.58C3748.41 580.437 3808.87 614.733 3819.91 621.479C3830.96 628.226 3858.86 643.968 3880.94 656.337C3903.61 669.268 3974.53 709.748 4039.63 747.417C4104.74 785.085 4158.79 815.445 4159.96 815.445C4161.12 815.445 4207.04 841.307 4262.84 873.354C4318.06 905.401 4367.47 932.949 4372.12 935.198C4376.77 937.447 4384.91 941.383 4389.56 944.756C4403.51 953.752 4600.56 1065.63 4610.44 1070.13C4615.09 1072.38 4627.3 1079.13 4636.6 1085.31C4646.48 1091.5 4662.18 1100.49 4671.48 1105.55C4681.36 1110.61 4742.39 1145.47 4808.08 1182.58C4873.76 1219.68 4961.53 1269.72 5002.8 1293.33C5044.66 1316.95 5082.44 1337.75 5087.09 1340C5091.74 1342.25 5103.95 1348.99 5113.25 1355.18C5123.13 1361.36 5138.24 1370.36 5147.54 1375.42C5156.84 1380.48 5220.78 1417.02 5289.95 1456.38C5359.13 1495.73 5424.81 1532.84 5435.85 1539.02C5499.21 1573.32 5644.53 1655.96 5657.9 1664.96C5666.62 1671.14 5674.76 1675.64 5676.5 1675.64C5698.01 1675.64 5820.66 1789.77 5842.75 1829.69C5850.88 1844.31 5863.09 1866.8 5870.07 1879.73C5877.04 1892.66 5882.85 1908.4 5882.85 1915.15C5883.44 1921.33 5885.76 1928.64 5888.09 1932.02C5906.11 1951.69 5907.27 2015.22 5906.69 3396.6C5906.69 4736.37 5905.52 4810.58 5889.83 4849.38C5884.02 4863.43 5860.19 4911.22 5849.14 4929.77C5837.52 4950.58 5756.72 5030.41 5720.1 5057.96C5692.2 5078.76 5514.91 5183.9 5507.93 5183.9C5506.19 5183.9 5488.75 5193.46 5468.99 5205.82C5449.22 5217.63 5370.17 5263.17 5293.44 5307.02C5216.71 5350.88 5149.87 5389.11 5145.22 5391.92C5124.29 5404.29 5061.51 5440.27 5047.56 5448.14C5003.97 5472.88 4995.83 5477.38 4979.55 5487.5C4970.25 5493.68 4958.05 5500.43 4953.4 5502.68C4948.75 5504.93 4892.36 5536.41 4828.42 5573.52C4764.48 5610.06 4700.54 5646.61 4686.01 5654.48C4630.79 5684.27 4146.59 5960.32 4113.45 5981.13C4107.06 5984.5 4097.76 5989.56 4093.11 5991.81C4088.46 5994.06 4046.61 6017.67 4000.11 6044.1C3953.6 6071.08 3900.13 6100.88 3880.94 6111C3861.76 6121.12 3836.77 6135.18 3825.72 6142.48C3806.54 6154.29 3692.03 6220.07 3645.53 6244.81C3624.02 6256.61 3439.18 6361.19 3424.64 6370.18C3407.21 6380.87 3316.53 6422.47 3288.04 6433.15C3178.18 6474.76 3021.82 6474.76 2908.47 6433.15C2873.6 6420.22 2748.62 6357.25 2709.68 6333.08C2673.06 6310.59 2671.89 6309.46 2562.61 6248.18C2509.14 6217.82 2448.68 6183.53 2428.92 6172.28C2409.16 6161.04 2388.81 6149.79 2384.16 6147.54C2377.19 6144.17 2300.46 6100.32 2192.34 6038.47C2187.69 6035.66 2155.14 6017.67 2119.68 5998.56C2084.81 5979.44 2052.25 5960.89 2047.6 5957.51C2043.54 5954.14 2026.1 5943.46 2009.24 5934.46C1992.38 5924.9 1964.48 5909.72 1947.04 5900.17C1916.24 5882.74 1763.36 5796.16 1726.74 5774.79C1715.7 5768.61 1695.35 5756.8 1680.82 5748.93C1666.29 5741.06 1650.59 5732.06 1645.94 5729.25C1625.6 5716.88 1517.48 5656.16 1515.16 5656.16C1513.99 5656.16 1501.79 5649.42 1487.84 5640.42C1449.47 5616.81 1441.33 5612.31 1417.5 5599.94C1405.3 5593.19 1350.66 5562.27 1295.43 5530.79C1240.21 5498.74 1172.2 5459.39 1143.14 5443.64C1114.66 5427.34 1086.76 5411.6 1082.11 5408.79C1067.58 5400.35 925.163 5319.39 881.567 5295.22C859.479 5282.29 833.903 5267.67 825.184 5262.05C816.465 5255.86 808.327 5251.36 807.164 5251.36C805.42 5251.36 758.918 5224.94 702.535 5192.89C646.732 5160.85 585.699 5126.55 567.098 5116.43C457.818 5057.96 382.834 4998.93 337.494 4935.96C313.662 4901.66 285.761 4845.44 285.761 4830.26C285.761 4825.2 281.692 4811.15 277.042 4798.78C270.066 4779.66 268.904 4583.45 268.323 3397.72C268.323 2418.9 270.066 2014.66 274.717 2003.42C278.204 1994.98 282.854 1976.43 285.761 1962.38C290.992 1933.7 312.499 1876.36 325.288 1855.55C387.484 1755.48 442.705 1709.38 619.994 1609.86C658.358 1588.5 700.791 1563.76 714.16 1555.89C728.111 1547.46 740.318 1540.71 741.48 1540.71C743.224 1540.71 765.894 1527.78 792.632 1512.04C819.371 1495.73 850.179 1477.74 861.223 1472.12C872.267 1465.93 908.887 1445.13 942.601 1425.45C976.315 1406.34 1043.74 1366.98 1092.57 1338.87C1141.4 1310.76 1182.09 1287.71 1183.25 1287.71C1184.41 1287.71 1237.31 1257.91 1300.67 1221.37C1364.61 1184.82 1420.41 1153.34 1425.06 1151.09C1429.71 1148.84 1441.92 1142.1 1451.8 1136.47C1461.68 1130.29 1518.06 1098.8 1576.77 1065.63C1635.48 1031.9 1690.7 1000.42 1699.42 994.794C1708.14 988.609 1716.86 984.111 1718.6 984.111C1720.35 984.111 1808.7 934.074 1915.07 872.23C2020.87 810.948 2117.36 755.288 2128.4 749.666C2157.47 733.923 2360.33 616.982 2419.04 582.124C2446.36 565.819 2481.82 545.58 2497.51 537.708C2513.79 529.275 2541.11 514.095 2558.54 503.413C2575.98 492.731 2594.58 482.049 2599.23 479.8C2606.79 476.426 2766.64 385.909 2791.05 371.291C2904.98 303.263 3030.54 276.838 3165.98 292.58Z"/>
</mask>
<path d="M2971.25 39.0189C2907.31 51.3877 2871.85 60.9455 2864.3 68.2544C2860.81 71.0655 2854.99 73.3143 2850.93 73.3143C2831.74 73.3143 2656.2 163.27 2575.98 213.869C2571.33 217.243 2563.2 221.178 2558.54 223.427C2553.89 225.676 2504.49 253.225 2448.68 285.271C2393.46 317.318 2346.96 343.18 2345.8 343.18C2345.22 343.18 2332.43 350.489 2318.48 360.047C2303.95 369.042 2290.58 376.913 2288.25 376.913C2286.51 376.913 2273.14 384.222 2259.19 393.78C2245.24 402.776 2232.45 410.647 2230.12 410.647C2228.38 410.647 2216.17 417.393 2202.22 425.827C2188.85 434.26 2172.58 443.818 2166.18 447.191C2140.61 460.684 1804.63 654.65 1784.87 667.019C1773.82 674.328 1762.2 680.512 1759.87 680.512C1757.55 680.512 1743.6 687.821 1729.07 697.379C1715.12 706.375 1702.33 714.246 1701.16 714.246C1698.84 714.246 1662.22 735.048 1512.25 821.068C1507.6 823.879 1476.21 841.87 1442.5 860.985C1408.78 880.101 1374.49 900.341 1365.77 905.963C1357.05 912.147 1348.33 916.645 1346.01 916.645C1344.26 916.645 1330.89 923.954 1316.36 933.512C1302.41 942.507 1289.62 950.378 1288.46 950.378C1286.72 950.378 1246.61 972.867 1198.36 1000.98C1150.12 1028.53 1110.01 1051.58 1108.26 1051.58C1107.1 1051.58 1094.31 1058.89 1080.36 1068.44C1065.83 1077.44 1053.04 1085.31 1051.3 1085.31C1048.97 1085.31 1036.19 1092.62 1022.24 1102.18C1007.7 1111.17 994.335 1119.04 992.591 1119.04C990.266 1119.04 978.059 1125.79 964.108 1134.22C950.739 1142.66 934.463 1152.78 927.488 1156.15C921.094 1159.52 818.79 1218 700.791 1286.02C582.792 1354.05 454.331 1427.7 415.966 1449.63C328.194 1499.67 281.692 1532.28 234.609 1576.69C172.412 1634.6 114.285 1714.44 88.1275 1777.97C81.1522 1794.27 71.8518 1815.07 67.7829 1824.63C63.7139 1833.63 58.4825 1847.68 57.3199 1855.55C55.5761 1863.42 51.5072 1876.92 48.6008 1886.48C30.5813 1936.51 30 1985.43 30 3374.11C30 4580.64 31.1625 4783.03 38.7191 4822.95C43.3693 4848.25 49.7633 4874.11 53.251 4880.3C56.1574 4885.92 59.0637 4896.04 59.0637 4902.23C59.0637 4907.85 62.5514 4920.22 67.2016 4929.21C71.2705 4937.65 83.4773 4962.38 93.9402 4983.75C138.698 5078.76 236.353 5189.52 321.8 5243.49C367.721 5272.73 738.574 5487.5 742.643 5487.5C744.387 5487.5 752.524 5491.99 761.244 5498.18C769.963 5503.8 832.74 5539.78 900.749 5578.01C968.759 5616.25 1031.54 5652.23 1040.26 5657.29C1048.97 5662.91 1060.02 5669.09 1064.67 5671.34C1073.97 5675.28 1240.8 5770.29 1256.49 5779.85C1261.14 5783.23 1269.28 5787.16 1273.93 5789.41C1283.23 5793.35 1479.7 5905.23 1494.81 5914.78C1499.46 5917.6 1513.99 5925.47 1526.78 5932.21C1539.57 5938.96 1561.08 5951.89 1574.45 5960.32C1587.82 5969.32 1600.02 5976.63 1602.35 5976.63C1604.67 5976.63 1626.18 5988.44 1650.59 6003.05C1714.53 6040.16 1847.65 6116.06 1878.45 6132.93C1892.99 6140.24 1908.68 6150.35 1913.91 6154.29C1918.56 6158.79 1924.96 6162.16 1927.28 6162.16C1929.02 6162.16 1965.64 6181.84 2008.08 6206.01C2050.51 6230.75 2135.96 6279.1 2198.15 6313.96C2260.35 6349.38 2358.59 6405.04 2416.13 6438.21C2473.68 6470.82 2530.06 6502.87 2541.11 6509.05C2552.15 6514.67 2583.54 6532.1 2610.28 6547.28C2798.03 6655.79 2886.97 6691.21 3009.03 6706.95C3123.54 6722.13 3252.01 6706.95 3369.42 6664.22C3408.37 6650.17 3506.02 6602.94 3562.99 6569.77C3568.8 6566.4 3611.23 6542.78 3657.15 6516.92C3703.66 6491.06 3748.41 6465.2 3757.13 6459.58C3765.85 6453.39 3774.57 6448.89 3776.32 6448.89C3778.06 6448.89 3796.08 6439.34 3815.84 6426.97C3835.61 6415.16 3888.5 6384.8 3933.26 6359.5C3978.02 6334.2 4018.71 6311.15 4023.36 6308.34C4028.01 6305.53 4042.54 6297.66 4055.33 6290.91C4068.12 6284.16 4089.62 6271.23 4102.99 6262.8C4116.36 6253.8 4128.57 6246.49 4129.73 6246.49C4132.06 6246.49 4256.45 6177.34 4290.74 6156.54C4309.93 6145.3 4451.18 6062.65 4473.84 6049.72C4487.21 6041.85 4515.7 6025.54 4537.2 6013.17C4558.71 6000.8 4587.19 5984.5 4600.56 5977.75C4613.93 5970.44 4673.22 5936.71 4732.51 5902.42C4791.8 5868.68 4844.12 5838.88 4848.77 5836.07C4853.42 5833.26 4888.88 5813.02 4927.24 5790.53C4965.6 5768.05 5003.39 5746.12 5011.52 5741.62C5019.66 5737.69 5034.19 5729.25 5043.49 5723.63C5053.38 5717.45 5065 5710.7 5069.65 5708.45C5074.3 5706.2 5124.29 5678.09 5180.09 5646.04C5235.9 5613.43 5347.5 5549.9 5427.14 5504.36C5879.37 5246.87 5877.04 5248.55 5951.45 5181.09C6002.6 5134.98 6049.68 5075.95 6078.16 5023.1C6089.21 5002.3 6100.83 4982.62 6103.16 4979.25C6110.71 4969.69 6131.64 4899.98 6142.1 4850.5C6150.24 4811.15 6151.4 4652.04 6152.57 3388.73C6153.73 2042.21 6153.15 1968 6143.27 1920.21C6111.3 1765.6 6029.92 1634.6 5904.36 1535.09C5856.12 1497.42 5813.1 1470.43 5697.43 1405.78C5650.93 1379.91 5545.13 1320.32 5462.01 1273.66C5378.89 1226.43 5301.58 1183.14 5290.54 1176.95C5279.49 1171.33 5259.15 1159.52 5245.78 1151.09C5231.83 1142.66 5219.62 1135.91 5218.46 1135.91C5215.55 1135.91 5017.92 1024.03 4999.9 1012.22C4995.25 1008.85 4987.11 1004.91 4982.46 1002.66C4973.16 998.729 4805.75 903.714 4790.64 894.156C4785.99 890.783 4777.85 886.847 4773.2 884.598C4768.55 882.35 4712.75 850.865 4649.39 814.321C4586.61 777.777 4533.14 747.979 4531.39 747.979C4529.65 747.979 4517.44 740.67 4504.07 731.674C4490.7 723.241 4469.19 710.31 4456.41 703.563C4443.62 696.817 4418.62 683.324 4401.19 673.204C4383.75 663.084 4348.87 643.968 4323.88 629.913C4298.88 615.857 4237.27 580.999 4187.28 552.326C4137.29 523.091 4080.32 491.606 4061.14 480.924C4041.96 470.804 3996.04 445.504 3959.42 424.702C3922.8 403.9 3882.11 380.849 3869.32 374.102C3856.53 366.793 3819.33 345.991 3786.2 326.876C3753.06 307.76 3725.16 292.58 3724 292.58C3722.84 292.58 3689.71 274.027 3650.18 251.538C3610.65 229.049 3574.61 208.809 3569.96 206.561C3565.31 204.312 3553.69 197.565 3543.81 191.381C3534.51 185.196 3521.14 177.887 3514.74 174.514C3508.35 171.141 3487.42 159.896 3468.24 149.214C3436.85 131.223 3352.57 90.7432 3322.92 78.9365C3316.53 76.6877 3300.83 70.5032 3288.04 65.4432C3200.85 31.1478 3069.49 20.4656 2971.25 39.0189ZM3165.98 292.58C3212.48 297.64 3253.17 310.571 3311.88 339.245C3356.05 360.047 3365.94 365.669 3491.49 435.947C3536.25 461.246 3624.02 510.16 3686.22 545.58C3748.41 580.437 3808.87 614.733 3819.91 621.479C3830.96 628.226 3858.86 643.968 3880.94 656.337C3903.61 669.268 3974.53 709.748 4039.63 747.417C4104.74 785.085 4158.79 815.445 4159.96 815.445C4161.12 815.445 4207.04 841.307 4262.84 873.354C4318.06 905.401 4367.47 932.949 4372.12 935.198C4376.77 937.447 4384.91 941.383 4389.56 944.756C4403.51 953.752 4600.56 1065.63 4610.44 1070.13C4615.09 1072.38 4627.3 1079.13 4636.6 1085.31C4646.48 1091.5 4662.18 1100.49 4671.48 1105.55C4681.36 1110.61 4742.39 1145.47 4808.08 1182.58C4873.76 1219.68 4961.53 1269.72 5002.8 1293.33C5044.66 1316.95 5082.44 1337.75 5087.09 1340C5091.74 1342.25 5103.95 1348.99 5113.25 1355.18C5123.13 1361.36 5138.24 1370.36 5147.54 1375.42C5156.84 1380.48 5220.78 1417.02 5289.95 1456.38C5359.13 1495.73 5424.81 1532.84 5435.85 1539.02C5499.21 1573.32 5644.53 1655.96 5657.9 1664.96C5666.62 1671.14 5674.76 1675.64 5676.5 1675.64C5698.01 1675.64 5820.66 1789.77 5842.75 1829.69C5850.88 1844.31 5863.09 1866.8 5870.07 1879.73C5877.04 1892.66 5882.85 1908.4 5882.85 1915.15C5883.44 1921.33 5885.76 1928.64 5888.09 1932.02C5906.11 1951.69 5907.27 2015.22 5906.69 3396.6C5906.69 4736.37 5905.52 4810.58 5889.83 4849.38C5884.02 4863.43 5860.19 4911.22 5849.14 4929.77C5837.52 4950.58 5756.72 5030.41 5720.1 5057.96C5692.2 5078.76 5514.91 5183.9 5507.93 5183.9C5506.19 5183.9 5488.75 5193.46 5468.99 5205.82C5449.22 5217.63 5370.17 5263.17 5293.44 5307.02C5216.71 5350.88 5149.87 5389.11 5145.22 5391.92C5124.29 5404.29 5061.51 5440.27 5047.56 5448.14C5003.97 5472.88 4995.83 5477.38 4979.55 5487.5C4970.25 5493.68 4958.05 5500.43 4953.4 5502.68C4948.75 5504.93 4892.36 5536.41 4828.42 5573.52C4764.48 5610.06 4700.54 5646.61 4686.01 5654.48C4630.79 5684.27 4146.59 5960.32 4113.45 5981.13C4107.06 5984.5 4097.76 5989.56 4093.11 5991.81C4088.46 5994.06 4046.61 6017.67 4000.11 6044.1C3953.6 6071.08 3900.13 6100.88 3880.94 6111C3861.76 6121.12 3836.77 6135.18 3825.72 6142.48C3806.54 6154.29 3692.03 6220.07 3645.53 6244.81C3624.02 6256.61 3439.18 6361.19 3424.64 6370.18C3407.21 6380.87 3316.53 6422.47 3288.04 6433.15C3178.18 6474.76 3021.82 6474.76 2908.47 6433.15C2873.6 6420.22 2748.62 6357.25 2709.68 6333.08C2673.06 6310.59 2671.89 6309.46 2562.61 6248.18C2509.14 6217.82 2448.68 6183.53 2428.92 6172.28C2409.16 6161.04 2388.81 6149.79 2384.16 6147.54C2377.19 6144.17 2300.46 6100.32 2192.34 6038.47C2187.69 6035.66 2155.14 6017.67 2119.68 5998.56C2084.81 5979.44 2052.25 5960.89 2047.6 5957.51C2043.54 5954.14 2026.1 5943.46 2009.24 5934.46C1992.38 5924.9 1964.48 5909.72 1947.04 5900.17C1916.24 5882.74 1763.36 5796.16 1726.74 5774.79C1715.7 5768.61 1695.35 5756.8 1680.82 5748.93C1666.29 5741.06 1650.59 5732.06 1645.94 5729.25C1625.6 5716.88 1517.48 5656.16 1515.16 5656.16C1513.99 5656.16 1501.79 5649.42 1487.84 5640.42C1449.47 5616.81 1441.33 5612.31 1417.5 5599.94C1405.3 5593.19 1350.66 5562.27 1295.43 5530.79C1240.21 5498.74 1172.2 5459.39 1143.14 5443.64C1114.66 5427.34 1086.76 5411.6 1082.11 5408.79C1067.58 5400.35 925.163 5319.39 881.567 5295.22C859.479 5282.29 833.903 5267.67 825.184 5262.05C816.465 5255.86 808.327 5251.36 807.164 5251.36C805.42 5251.36 758.918 5224.94 702.535 5192.89C646.732 5160.85 585.699 5126.55 567.098 5116.43C457.818 5057.96 382.834 4998.93 337.494 4935.96C313.662 4901.66 285.761 4845.44 285.761 4830.26C285.761 4825.2 281.692 4811.15 277.042 4798.78C270.066 4779.66 268.904 4583.45 268.323 3397.72C268.323 2418.9 270.066 2014.66 274.717 2003.42C278.204 1994.98 282.854 1976.43 285.761 1962.38C290.992 1933.7 312.499 1876.36 325.288 1855.55C387.484 1755.48 442.705 1709.38 619.994 1609.86C658.358 1588.5 700.791 1563.76 714.16 1555.89C728.111 1547.46 740.318 1540.71 741.48 1540.71C743.224 1540.71 765.894 1527.78 792.632 1512.04C819.371 1495.73 850.179 1477.74 861.223 1472.12C872.267 1465.93 908.887 1445.13 942.601 1425.45C976.315 1406.34 1043.74 1366.98 1092.57 1338.87C1141.4 1310.76 1182.09 1287.71 1183.25 1287.71C1184.41 1287.71 1237.31 1257.91 1300.67 1221.37C1364.61 1184.82 1420.41 1153.34 1425.06 1151.09C1429.71 1148.84 1441.92 1142.1 1451.8 1136.47C1461.68 1130.29 1518.06 1098.8 1576.77 1065.63C1635.48 1031.9 1690.7 1000.42 1699.42 994.794C1708.14 988.609 1716.86 984.111 1718.6 984.111C1720.35 984.111 1808.7 934.074 1915.07 872.23C2020.87 810.948 2117.36 755.288 2128.4 749.666C2157.47 733.923 2360.33 616.982 2419.04 582.124C2446.36 565.819 2481.82 545.58 2497.51 537.708C2513.79 529.275 2541.11 514.095 2558.54 503.413C2575.98 492.731 2594.58 482.049 2599.23 479.8C2606.79 476.426 2766.64 385.909 2791.05 371.291C2904.98 303.263 3030.54 276.838 3165.98 292.58Z" fill="#192435"/>
<path d="M2971.25 39.0189C2907.31 51.3877 2871.85 60.9455 2864.3 68.2544C2860.81 71.0655 2854.99 73.3143 2850.93 73.3143C2831.74 73.3143 2656.2 163.27 2575.98 213.869C2571.33 217.243 2563.2 221.178 2558.54 223.427C2553.89 225.676 2504.49 253.225 2448.68 285.271C2393.46 317.318 2346.96 343.18 2345.8 343.18C2345.22 343.18 2332.43 350.489 2318.48 360.047C2303.95 369.042 2290.58 376.913 2288.25 376.913C2286.51 376.913 2273.14 384.222 2259.19 393.78C2245.24 402.776 2232.45 410.647 2230.12 410.647C2228.38 410.647 2216.17 417.393 2202.22 425.827C2188.85 434.26 2172.58 443.818 2166.18 447.191C2140.61 460.684 1804.63 654.65 1784.87 667.019C1773.82 674.328 1762.2 680.512 1759.87 680.512C1757.55 680.512 1743.6 687.821 1729.07 697.379C1715.12 706.375 1702.33 714.246 1701.16 714.246C1698.84 714.246 1662.22 735.048 1512.25 821.068C1507.6 823.879 1476.21 841.87 1442.5 860.985C1408.78 880.101 1374.49 900.341 1365.77 905.963C1357.05 912.147 1348.33 916.645 1346.01 916.645C1344.26 916.645 1330.89 923.954 1316.36 933.512C1302.41 942.507 1289.62 950.378 1288.46 950.378C1286.72 950.378 1246.61 972.867 1198.36 1000.98C1150.12 1028.53 1110.01 1051.58 1108.26 1051.58C1107.1 1051.58 1094.31 1058.89 1080.36 1068.44C1065.83 1077.44 1053.04 1085.31 1051.3 1085.31C1048.97 1085.31 1036.19 1092.62 1022.24 1102.18C1007.7 1111.17 994.335 1119.04 992.591 1119.04C990.266 1119.04 978.059 1125.79 964.108 1134.22C950.739 1142.66 934.463 1152.78 927.488 1156.15C921.094 1159.52 818.79 1218 700.791 1286.02C582.792 1354.05 454.331 1427.7 415.966 1449.63C328.194 1499.67 281.692 1532.28 234.609 1576.69C172.412 1634.6 114.285 1714.44 88.1275 1777.97C81.1522 1794.27 71.8518 1815.07 67.7829 1824.63C63.7139 1833.63 58.4825 1847.68 57.3199 1855.55C55.5761 1863.42 51.5072 1876.92 48.6008 1886.48C30.5813 1936.51 30 1985.43 30 3374.11C30 4580.64 31.1625 4783.03 38.7191 4822.95C43.3693 4848.25 49.7633 4874.11 53.251 4880.3C56.1574 4885.92 59.0637 4896.04 59.0637 4902.23C59.0637 4907.85 62.5514 4920.22 67.2016 4929.21C71.2705 4937.65 83.4773 4962.38 93.9402 4983.75C138.698 5078.76 236.353 5189.52 321.8 5243.49C367.721 5272.73 738.574 5487.5 742.643 5487.5C744.387 5487.5 752.524 5491.99 761.244 5498.18C769.963 5503.8 832.74 5539.78 900.749 5578.01C968.759 5616.25 1031.54 5652.23 1040.26 5657.29C1048.97 5662.91 1060.02 5669.09 1064.67 5671.34C1073.97 5675.28 1240.8 5770.29 1256.49 5779.85C1261.14 5783.23 1269.28 5787.16 1273.93 5789.41C1283.23 5793.35 1479.7 5905.23 1494.81 5914.78C1499.46 5917.6 1513.99 5925.47 1526.78 5932.21C1539.57 5938.96 1561.08 5951.89 1574.45 5960.32C1587.82 5969.32 1600.02 5976.63 1602.35 5976.63C1604.67 5976.63 1626.18 5988.44 1650.59 6003.05C1714.53 6040.16 1847.65 6116.06 1878.45 6132.93C1892.99 6140.24 1908.68 6150.35 1913.91 6154.29C1918.56 6158.79 1924.96 6162.16 1927.28 6162.16C1929.02 6162.16 1965.64 6181.84 2008.08 6206.01C2050.51 6230.75 2135.96 6279.1 2198.15 6313.96C2260.35 6349.38 2358.59 6405.04 2416.13 6438.21C2473.68 6470.82 2530.06 6502.87 2541.11 6509.05C2552.15 6514.67 2583.54 6532.1 2610.28 6547.28C2798.03 6655.79 2886.97 6691.21 3009.03 6706.95C3123.54 6722.13 3252.01 6706.95 3369.42 6664.22C3408.37 6650.17 3506.02 6602.94 3562.99 6569.77C3568.8 6566.4 3611.23 6542.78 3657.15 6516.92C3703.66 6491.06 3748.41 6465.2 3757.13 6459.58C3765.85 6453.39 3774.57 6448.89 3776.32 6448.89C3778.06 6448.89 3796.08 6439.34 3815.84 6426.97C3835.61 6415.16 3888.5 6384.8 3933.26 6359.5C3978.02 6334.2 4018.71 6311.15 4023.36 6308.34C4028.01 6305.53 4042.54 6297.66 4055.33 6290.91C4068.12 6284.16 4089.62 6271.23 4102.99 6262.8C4116.36 6253.8 4128.57 6246.49 4129.73 6246.49C4132.06 6246.49 4256.45 6177.34 4290.74 6156.54C4309.93 6145.3 4451.18 6062.65 4473.84 6049.72C4487.21 6041.85 4515.7 6025.54 4537.2 6013.17C4558.71 6000.8 4587.19 5984.5 4600.56 5977.75C4613.93 5970.44 4673.22 5936.71 4732.51 5902.42C4791.8 5868.68 4844.12 5838.88 4848.77 5836.07C4853.42 5833.26 4888.88 5813.02 4927.24 5790.53C4965.6 5768.05 5003.39 5746.12 5011.52 5741.62C5019.66 5737.69 5034.19 5729.25 5043.49 5723.63C5053.38 5717.45 5065 5710.7 5069.65 5708.45C5074.3 5706.2 5124.29 5678.09 5180.09 5646.04C5235.9 5613.43 5347.5 5549.9 5427.14 5504.36C5879.37 5246.87 5877.04 5248.55 5951.45 5181.09C6002.6 5134.98 6049.68 5075.95 6078.16 5023.1C6089.21 5002.3 6100.83 4982.62 6103.16 4979.25C6110.71 4969.69 6131.64 4899.98 6142.1 4850.5C6150.24 4811.15 6151.4 4652.04 6152.57 3388.73C6153.73 2042.21 6153.15 1968 6143.27 1920.21C6111.3 1765.6 6029.92 1634.6 5904.36 1535.09C5856.12 1497.42 5813.1 1470.43 5697.43 1405.78C5650.93 1379.91 5545.13 1320.32 5462.01 1273.66C5378.89 1226.43 5301.58 1183.14 5290.54 1176.95C5279.49 1171.33 5259.15 1159.52 5245.78 1151.09C5231.83 1142.66 5219.62 1135.91 5218.46 1135.91C5215.55 1135.91 5017.92 1024.03 4999.9 1012.22C4995.25 1008.85 4987.11 1004.91 4982.46 1002.66C4973.16 998.729 4805.75 903.714 4790.64 894.156C4785.99 890.783 4777.85 886.847 4773.2 884.598C4768.55 882.35 4712.75 850.865 4649.39 814.321C4586.61 777.777 4533.14 747.979 4531.39 747.979C4529.65 747.979 4517.44 740.67 4504.07 731.674C4490.7 723.241 4469.19 710.31 4456.41 703.563C4443.62 696.817 4418.62 683.324 4401.19 673.204C4383.75 663.084 4348.87 643.968 4323.88 629.913C4298.88 615.857 4237.27 580.999 4187.28 552.326C4137.29 523.091 4080.32 491.606 4061.14 480.924C4041.96 470.804 3996.04 445.504 3959.42 424.702C3922.8 403.9 3882.11 380.849 3869.32 374.102C3856.53 366.793 3819.33 345.991 3786.2 326.876C3753.06 307.76 3725.16 292.58 3724 292.58C3722.84 292.58 3689.71 274.027 3650.18 251.538C3610.65 229.049 3574.61 208.809 3569.96 206.561C3565.31 204.312 3553.69 197.565 3543.81 191.381C3534.51 185.196 3521.14 177.887 3514.74 174.514C3508.35 171.141 3487.42 159.896 3468.24 149.214C3436.85 131.223 3352.57 90.7432 3322.92 78.9365C3316.53 76.6877 3300.83 70.5032 3288.04 65.4432C3200.85 31.1478 3069.49 20.4656 2971.25 39.0189ZM3165.98 292.58C3212.48 297.64 3253.17 310.571 3311.88 339.245C3356.05 360.047 3365.94 365.669 3491.49 435.947C3536.25 461.246 3624.02 510.16 3686.22 545.58C3748.41 580.437 3808.87 614.733 3819.91 621.479C3830.96 628.226 3858.86 643.968 3880.94 656.337C3903.61 669.268 3974.53 709.748 4039.63 747.417C4104.74 785.085 4158.79 815.445 4159.96 815.445C4161.12 815.445 4207.04 841.307 4262.84 873.354C4318.06 905.401 4367.47 932.949 4372.12 935.198C4376.77 937.447 4384.91 941.383 4389.56 944.756C4403.51 953.752 4600.56 1065.63 4610.44 1070.13C4615.09 1072.38 4627.3 1079.13 4636.6 1085.31C4646.48 1091.5 4662.18 1100.49 4671.48 1105.55C4681.36 1110.61 4742.39 1145.47 4808.08 1182.58C4873.76 1219.68 4961.53 1269.72 5002.8 1293.33C5044.66 1316.95 5082.44 1337.75 5087.09 1340C5091.74 1342.25 5103.95 1348.99 5113.25 1355.18C5123.13 1361.36 5138.24 1370.36 5147.54 1375.42C5156.84 1380.48 5220.78 1417.02 5289.95 1456.38C5359.13 1495.73 5424.81 1532.84 5435.85 1539.02C5499.21 1573.32 5644.53 1655.96 5657.9 1664.96C5666.62 1671.14 5674.76 1675.64 5676.5 1675.64C5698.01 1675.64 5820.66 1789.77 5842.75 1829.69C5850.88 1844.31 5863.09 1866.8 5870.07 1879.73C5877.04 1892.66 5882.85 1908.4 5882.85 1915.15C5883.44 1921.33 5885.76 1928.64 5888.09 1932.02C5906.11 1951.69 5907.27 2015.22 5906.69 3396.6C5906.69 4736.37 5905.52 4810.58 5889.83 4849.38C5884.02 4863.43 5860.19 4911.22 5849.14 4929.77C5837.52 4950.58 5756.72 5030.41 5720.1 5057.96C5692.2 5078.76 5514.91 5183.9 5507.93 5183.9C5506.19 5183.9 5488.75 5193.46 5468.99 5205.82C5449.22 5217.63 5370.17 5263.17 5293.44 5307.02C5216.71 5350.88 5149.87 5389.11 5145.22 5391.92C5124.29 5404.29 5061.51 5440.27 5047.56 5448.14C5003.97 5472.88 4995.83 5477.38 4979.55 5487.5C4970.25 5493.68 4958.05 5500.43 4953.4 5502.68C4948.75 5504.93 4892.36 5536.41 4828.42 5573.52C4764.48 5610.06 4700.54 5646.61 4686.01 5654.48C4630.79 5684.27 4146.59 5960.32 4113.45 5981.13C4107.06 5984.5 4097.76 5989.56 4093.11 5991.81C4088.46 5994.06 4046.61 6017.67 4000.11 6044.1C3953.6 6071.08 3900.13 6100.88 3880.94 6111C3861.76 6121.12 3836.77 6135.18 3825.72 6142.48C3806.54 6154.29 3692.03 6220.07 3645.53 6244.81C3624.02 6256.61 3439.18 6361.19 3424.64 6370.18C3407.21 6380.87 3316.53 6422.47 3288.04 6433.15C3178.18 6474.76 3021.82 6474.76 2908.47 6433.15C2873.6 6420.22 2748.62 6357.25 2709.68 6333.08C2673.06 6310.59 2671.89 6309.46 2562.61 6248.18C2509.14 6217.82 2448.68 6183.53 2428.92 6172.28C2409.16 6161.04 2388.81 6149.79 2384.16 6147.54C2377.19 6144.17 2300.46 6100.32 2192.34 6038.47C2187.69 6035.66 2155.14 6017.67 2119.68 5998.56C2084.81 5979.44 2052.25 5960.89 2047.6 5957.51C2043.54 5954.14 2026.1 5943.46 2009.24 5934.46C1992.38 5924.9 1964.48 5909.72 1947.04 5900.17C1916.24 5882.74 1763.36 5796.16 1726.74 5774.79C1715.7 5768.61 1695.35 5756.8 1680.82 5748.93C1666.29 5741.06 1650.59 5732.06 1645.94 5729.25C1625.6 5716.88 1517.48 5656.16 1515.16 5656.16C1513.99 5656.16 1501.79 5649.42 1487.84 5640.42C1449.47 5616.81 1441.33 5612.31 1417.5 5599.94C1405.3 5593.19 1350.66 5562.27 1295.43 5530.79C1240.21 5498.74 1172.2 5459.39 1143.14 5443.64C1114.66 5427.34 1086.76 5411.6 1082.11 5408.79C1067.58 5400.35 925.163 5319.39 881.567 5295.22C859.479 5282.29 833.903 5267.67 825.184 5262.05C816.465 5255.86 808.327 5251.36 807.164 5251.36C805.42 5251.36 758.918 5224.94 702.535 5192.89C646.732 5160.85 585.699 5126.55 567.098 5116.43C457.818 5057.96 382.834 4998.93 337.494 4935.96C313.662 4901.66 285.761 4845.44 285.761 4830.26C285.761 4825.2 281.692 4811.15 277.042 4798.78C270.066 4779.66 268.904 4583.45 268.323 3397.72C268.323 2418.9 270.066 2014.66 274.717 2003.42C278.204 1994.98 282.854 1976.43 285.761 1962.38C290.992 1933.7 312.499 1876.36 325.288 1855.55C387.484 1755.48 442.705 1709.38 619.994 1609.86C658.358 1588.5 700.791 1563.76 714.16 1555.89C728.111 1547.46 740.318 1540.71 741.48 1540.71C743.224 1540.71 765.894 1527.78 792.632 1512.04C819.371 1495.73 850.179 1477.74 861.223 1472.12C872.267 1465.93 908.887 1445.13 942.601 1425.45C976.315 1406.34 1043.74 1366.98 1092.57 1338.87C1141.4 1310.76 1182.09 1287.71 1183.25 1287.71C1184.41 1287.71 1237.31 1257.91 1300.67 1221.37C1364.61 1184.82 1420.41 1153.34 1425.06 1151.09C1429.71 1148.84 1441.92 1142.1 1451.8 1136.47C1461.68 1130.29 1518.06 1098.8 1576.77 1065.63C1635.48 1031.9 1690.7 1000.42 1699.42 994.794C1708.14 988.609 1716.86 984.111 1718.6 984.111C1720.35 984.111 1808.7 934.074 1915.07 872.23C2020.87 810.948 2117.36 755.288 2128.4 749.666C2157.47 733.923 2360.33 616.982 2419.04 582.124C2446.36 565.819 2481.82 545.58 2497.51 537.708C2513.79 529.275 2541.11 514.095 2558.54 503.413C2575.98 492.731 2594.58 482.049 2599.23 479.8C2606.79 476.426 2766.64 385.909 2791.05 371.291C2904.98 303.263 3030.54 276.838 3165.98 292.58Z" stroke="white" stroke-width="60" mask="url(#path-7-outside-1_39_3)"/>
</svg>
