<svg width="800" height="800" viewBox="0 0 800 800" fill="none" xmlns="http://www.w3.org/2000/svg">
<g clip-path="url(#clip0_72_2)">
<path d="M760 311.667L683.333 248.333V125C683.28 121.804 682.31 118.691 680.537 116.031C678.764 113.372 676.263 111.278 673.333 110L508.333 35H501.667L491.667 38.3334L400 98.3334L308.333 36.6667L298.333 33.3334H291.667L126.667 110C123.737 111.278 121.237 113.372 119.464 116.031C117.691 118.691 116.72 121.804 116.667 125V248.333L40.0001 311.667C37.6873 312.972 35.8171 314.939 34.6293 317.315C33.4416 319.69 32.9903 322.366 33.3334 325V475C32.9903 477.634 33.4416 480.31 34.6293 482.685C35.8171 485.061 37.6873 487.028 40.0001 488.333L116.667 551.667V675C116.72 678.196 117.691 681.309 119.464 683.969C121.237 686.628 123.737 688.722 126.667 690L291.667 765H298.333L308.333 761.667L400 701.667L491.667 763.333L501.667 766.667H508.333L673.333 691.667C676.263 690.389 678.764 688.295 680.537 685.635C682.31 682.976 683.28 679.863 683.333 676.667V551.667L760 488.333C762.045 487.153 763.739 485.451 764.911 483.401C766.082 481.351 766.688 479.027 766.667 476.667V323.333C766.688 320.973 766.082 318.649 764.911 316.599C763.739 314.549 762.045 312.847 760 311.667ZM675 425H700V451.667L641.667 498.333L635 503.333L628.333 500C625.428 498.33 622.197 497.306 618.861 496.996C615.524 496.686 612.16 497.099 608.997 498.206C605.834 499.313 602.947 501.088 600.532 503.411C598.117 505.734 596.23 508.55 595 511.667C592.01 517.433 591.381 524.137 593.248 530.359C595.114 536.581 599.329 541.832 605 545L616.667 550V640L506.667 691.667L436.667 645L425 636.667V425H450C456.63 425 462.989 422.366 467.678 417.678C472.366 412.989 475 406.63 475 400C475 393.37 472.366 387.011 467.678 382.322C462.989 377.634 456.63 375 450 375H425V161.667L436.667 153.333L506.667 106.667L616.667 158.333V248.333L605 253.333C599.329 256.502 595.114 261.753 593.248 267.974C591.381 274.196 592.01 280.9 595 286.667C596.679 291.059 599.647 294.841 603.513 297.518C607.38 300.195 611.964 301.641 616.667 301.667L628.333 298.333L635 295L641.667 300L700 348.333V375H675C668.37 375 662.011 377.634 657.322 382.322C652.634 387.011 650 393.37 650 400C650 406.63 652.634 412.989 657.322 417.678C662.011 422.366 668.37 425 675 425ZM350 425H375V638.333L363.333 646.667L293.333 693.333L183.333 641.667V551.667L195 546.667C200.671 543.498 204.886 538.247 206.752 532.026C208.619 525.804 207.99 519.1 205 513.333C203.77 510.216 201.884 507.401 199.468 505.078C197.053 502.755 194.166 500.98 191.003 499.873C187.84 498.766 184.476 498.353 181.139 498.663C177.803 498.972 174.572 499.997 171.667 501.667L165 505L158.333 500L100 451.667V425H125C131.631 425 137.989 422.366 142.678 417.678C147.366 412.989 150 406.63 150 400C150 393.37 147.366 387.011 142.678 382.322C137.989 377.634 131.631 375 125 375H100V348.333L158.333 301.667L165 296.667L171.667 300L183.333 303.333C188.036 303.308 192.621 301.862 196.487 299.185C200.353 296.508 203.321 292.726 205 288.333C207.99 282.567 208.619 275.863 206.752 269.641C204.886 263.419 200.671 258.168 195 255L183.333 250V158.333L293.333 106.667L363.333 153.333L375 161.667V375H350C343.37 375 337.011 377.634 332.322 382.322C327.634 387.011 325 393.37 325 400C325 406.63 327.634 412.989 332.322 417.678C337.011 422.366 343.37 425 350 425Z" fill="#8A4F34"/>
<path d="M231.666 165C227.612 170.251 225.413 176.699 225.413 183.333C225.413 189.968 227.612 196.415 231.666 201.667L275 243.333V290L208.333 356.667V443.333L275 510V556.667L231.666 598.333C227.612 603.585 225.413 610.032 225.413 616.667C225.413 623.301 227.612 629.748 231.666 635C234.119 637.283 237.006 639.05 240.156 640.195C243.305 641.341 246.653 641.841 250 641.667C253.346 641.841 256.694 641.341 259.843 640.195C262.993 639.05 265.88 637.283 268.333 635L325 576.667V490L258.333 423.333V376.667L325 310V223.333L268.333 165C263.082 160.946 256.634 158.746 250 158.746C243.365 158.746 236.918 160.946 231.666 165Z" fill="#8A4F34"/>
<path d="M525 243.333L568.333 201.667C572.388 196.415 574.587 189.968 574.587 183.333C574.587 176.699 572.388 170.251 568.333 165C563.082 160.946 556.634 158.746 550 158.746C543.366 158.746 536.918 160.946 531.667 165L475 223.333V310L541.667 376.667V423.333L475 490V576.667L531.667 635C536.787 639.345 543.284 641.731 550 641.731C556.716 641.731 563.213 639.345 568.333 635C572.388 629.748 574.587 623.301 574.587 616.667C574.587 610.032 572.388 603.585 568.333 598.333L525 556.667V510L591.667 443.333V356.667L525 290V243.333Z" fill="#8A4F34"/>
</g>
<defs>
<clipPath id="clip0_72_2">
<rect width="800" height="800" fill="white"/>
</clipPath>
</defs>
</svg>
