<svg width="800" height="800" viewBox="0 0 800 800" fill="none" xmlns="http://www.w3.org/2000/svg">
<g clip-path="url(#clip0_72_11)">
<path d="M423.407 73.182L656.74 160.682C682.763 170.439 700 195.314 700 223.104V401.86C700 515.493 635.8 619.373 534.163 670.19L422.36 726.09C408.283 733.13 391.717 733.13 377.64 726.09L265.836 670.19C164.201 619.373 100 515.493 100 401.86V223.104C100 195.314 117.238 170.439 143.258 160.682L376.593 73.182C391.683 67.5223 408.317 67.5223 423.407 73.182ZM400 135.604L166.667 223.104V401.86C166.667 490.24 216.601 571.037 295.65 610.56L400 662.737L504.35 610.56C583.4 571.037 633.333 490.24 633.333 401.86V223.104L400 135.604ZM400 266.67C436.82 266.67 466.667 296.518 466.667 333.337C466.667 356.115 455.243 376.224 437.813 388.251L433.333 391.087V500.004C433.333 518.413 418.41 533.337 400 533.337C382.905 533.337 368.816 520.469 366.891 503.891L366.667 500.004V391.087C346.74 379.557 333.333 358.013 333.333 333.337C333.333 296.518 363.18 266.67 400 266.67Z" fill="#8A4F34"/>
</g>
<defs>
<clipPath id="clip0_72_11">
<rect width="800" height="800" fill="white"/>
</clipPath>
</defs>
</svg>
