<svg width="6183" height="9757" viewBox="0 0 6183 9757" fill="none" xmlns="http://www.w3.org/2000/svg">
<path d="M799.262 7501.17C897.345 7499.59 973.627 7509.22 1026.7 7531.31L1027.95 7531.83L1027.97 7531.84C1321.58 7656.46 1302.06 8081.95 1003.19 8188.81L1003.18 8188.82L1003.16 8188.82C958.384 8204.75 905.199 8211.44 850.746 8213.93C798.352 8216.31 743.77 8214.83 693.196 8213.51V8482.84C693.196 8490.24 690.283 8497.38 685.053 8502.66C679.817 8507.94 672.686 8510.94 665.219 8510.94H503.355C496.241 8510.94 489.497 8508.04 484.585 8503C479.687 8497.98 477 8491.24 477 8484.29V7521.44C477 7516.4 478.981 7511.54 482.556 7507.93L482.896 7507.59C486.439 7504.19 491.169 7502.26 496.116 7502.26V7502.26C682.152 7501.89 783.027 7501.53 799.169 7501.17L799.216 7501.17H799.262ZM694.13 7693.85L695.867 8019.5L851.149 8018.63H851.153C895.872 8018.38 938.45 8001.79 969.578 7972.82C1000.67 7943.89 1017.76 7905.07 1017.56 7864.97L1017.56 7864.94V7844.88C1017.46 7825.01 1013.11 7805.32 1004.72 7786.93C996.329 7768.51 984.035 7751.72 968.48 7737.54C952.923 7723.36 934.415 7712.09 913.986 7704.42C893.558 7696.75 871.647 7692.85 849.517 7692.97L694.13 7693.85Z" fill="white" stroke="white" stroke-width="30"/>
<path d="M1620.27 8127.85H1620.27M1620.27 8127.85L1620.27 8127.85M1620.27 8127.85H1620.27M1620.27 8127.85L1620.27 8127.85M1620.27 8127.85V8127.85M1620.27 8127.85V8127.85M1763.33 7501C1788.35 7501.12 1811.14 7502.04 1831.68 7503.8L1835.75 7504.16L1835.82 7504.17L1835.88 7504.17C1843.05 7504.9 1849.88 7507.57 1855.64 7511.89C1861.22 7516.07 1865.6 7521.64 1868.37 7528.02L1868.63 7528.64L1868.63 7528.65L1868.64 7528.66L2258.52 8473.29H2258.52C2260.23 8477.4 2260.9 8481.87 2260.48 8486.3C2260.06 8490.76 2258.56 8495.04 2256.08 8498.78C2253.61 8502.52 2250.25 8505.6 2246.29 8507.72C2242.35 8509.84 2237.94 8510.95 2233.46 8510.94V8510.94H2074.62C2065.31 8510.94 2056.23 8508.16 2048.5 8502.98C2040.78 8497.81 2034.76 8490.46 2031.18 8481.87L2031.15 8481.82L1964.37 8319.8L1964.37 8319.79C1963.45 8317.57 1961.94 8315.64 1960.02 8314.22C1958.09 8312.8 1955.81 8311.94 1953.43 8311.73L1953.42 8311.72H1953.42C1934.17 8309.98 1870.66 8308.99 1761.62 8308.87H1761.6C1652.69 8308.63 1589.22 8309.37 1569.94 8311L1569.91 8311.01L1569.88 8311.01C1567.49 8311.2 1565.2 8312.04 1563.26 8313.45C1561.32 8314.85 1559.79 8316.77 1558.86 8318.99L1491.56 8480.77L1491.54 8480.82L1491.52 8480.86C1487.9 8489.4 1481.86 8496.69 1474.14 8501.82C1466.41 8506.95 1457.35 8509.68 1448.08 8509.67H1448.05L1289.21 8509.12V8509.12C1284.75 8509.12 1280.36 8508.01 1276.43 8505.9C1272.47 8503.78 1269.11 8500.7 1266.64 8496.96C1264.17 8493.22 1262.66 8488.94 1262.25 8484.49C1261.83 8480.03 1262.51 8475.54 1264.23 8471.41H1264.23L1657.72 7528.25L1657.74 7528.2L1657.76 7528.16C1660.58 7521.53 1665.12 7515.77 1670.93 7511.5C1676.73 7507.24 1683.59 7504.63 1690.76 7503.98V7503.98C1690.77 7503.98 1690.78 7503.98 1690.79 7503.97C1690.79 7503.97 1690.79 7503.97 1690.8 7503.97V7503.97C1712.4 7501.98 1736.57 7501 1763.26 7501H1763.33ZM1634 8118.42L1884.66 8117.11L1757.62 7801.63L1634 8118.42Z" fill="white" stroke="white" stroke-width="30"/>
<path d="M3008.02 7501C3014.78 7501.11 3021.2 7503.82 3025.99 7508.51L3026.45 7508.97L3026.9 7509.44C3031.45 7514.35 3033.97 7520.8 3033.97 7527.49V7674.49C3033.97 7681.68 3031.18 7688.66 3026.11 7693.86C3021.03 7699.07 3014.05 7702.07 3006.7 7702.07H2746.71L2746.53 8482.96C2746.53 8489.75 2743.96 8496.28 2739.35 8501.24C2734.74 8506.21 2728.42 8509.25 2721.67 8509.77L2721.62 8509.78C2712.64 8510.43 2683.85 8510.79 2636.29 8510.91C2588.75 8511.03 2559.86 8510.8 2550.73 8510.14L2550.7 8510.14L2550.66 8510.14C2543.91 8509.62 2537.59 8506.58 2532.98 8501.61C2528.38 8496.66 2525.81 8490.15 2525.8 8483.38V8483.38L2523.11 7702.44L2262.98 7703.35L2262.95 7703.35H2262.93C2255.57 7703.35 2248.6 7700.35 2243.51 7695.13C2238.45 7689.94 2235.67 7682.98 2235.66 7675.8L2235.3 7528.8V7528.77C2235.3 7521.87 2237.98 7515.21 2242.82 7510.24C2247.66 7505.27 2254.27 7502.39 2261.24 7502.28L2261.38 7502.28H2261.51C2383.34 7502.52 2507.7 7502.46 2634.59 7502.09L2634.6 7502.09H2634.62C2761.51 7501.97 2885.87 7501.61 3007.71 7501L3007.86 7501L3008.02 7501Z" fill="white" stroke="white" stroke-width="30"/>
<path d="M3867.98 7501C3871.4 7501 3874.79 7501.64 3877.97 7502.88L3878.61 7503.14L3879.23 7503.41C3882.14 7504.71 3884.79 7506.51 3887.08 7508.72L3887.57 7509.2L3888.04 7509.69C3890.37 7512.17 3892.23 7515.05 3893.51 7518.2C3894.89 7521.55 3895.59 7525.14 3895.59 7528.76V7679.93C3895.59 7683.55 3894.89 7687.14 3893.51 7690.5C3892.14 7693.85 3890.12 7696.91 3887.57 7699.5C3885.01 7702.09 3881.97 7704.15 3878.61 7705.56C3875.24 7706.97 3871.63 7707.7 3867.98 7707.7H3443.57V7900.71H3811.95C3819.11 7900.71 3825.94 7903.5 3831.05 7908.42L3831.54 7908.91L3832.02 7909.4C3836.87 7914.57 3839.56 7921.39 3839.56 7928.47V8061.95C3839.56 8069.26 3836.7 8076.3 3831.54 8081.52C3826.37 8086.75 3819.33 8089.72 3811.95 8089.72H3444.29V8300.23H3869.06C3872.71 8300.23 3876.32 8300.96 3879.69 8302.37C3882.84 8303.69 3885.71 8305.59 3888.16 8307.95L3888.65 8308.43L3889.12 8308.92C3891.3 8311.24 3893.06 8313.91 3894.33 8316.81L3894.59 8317.43L3894.84 8318.06C3896.05 8321.24 3896.67 8324.6 3896.67 8328V8483.18C3896.67 8486.8 3895.97 8490.39 3894.59 8493.74C3893.22 8497.1 3891.21 8500.16 3888.65 8502.75C3886.09 8505.33 3883.05 8507.39 3879.69 8508.8C3876.32 8510.21 3872.71 8510.94 3869.06 8510.94H3254.9C3247.52 8510.94 3240.48 8507.97 3235.31 8502.75C3230.15 8497.52 3227.29 8490.48 3227.29 8483.18V7528.76C3227.29 7521.46 3230.15 7514.42 3235.31 7509.2C3240.48 7503.97 3247.52 7501 3254.9 7501H3867.98Z" fill="white" stroke="white" stroke-width="30"/>
<path d="M4298.62 7501V7501C4308.62 7501 4318.48 7503.33 4327.42 7507.81C4336.37 7512.29 4344.15 7518.79 4350.16 7526.79C4533.27 7770.26 4682.78 7970.84 4798.69 8128.52V7525.63C4798.69 7519.73 4801.03 7514.07 4805.21 7509.89L4805.6 7509.5C4809.73 7505.57 4815.23 7503.36 4820.95 7503.36H4998.03C5004.44 7503.36 5010.55 7505.88 5015.1 7510.3L5015.54 7510.74L5015.96 7511.18C5020.28 7515.8 5022.64 7521.89 5022.64 7528.17V8482.27L5022.64 8482.9C5022.49 8489.45 5019.94 8495.73 5015.45 8500.53C5010.86 8505.43 5004.59 8508.42 4997.89 8508.88L4997.89 8508.89C4978 8510.39 4942.43 8511.05 4891.67 8510.93V8510.93C4870.6 8510.92 4853.54 8510.11 4838.15 8503.45C4822.38 8496.62 4810.18 8484.53 4796.24 8466.62L4796.22 8466.61L4796.21 8466.59C4640.45 8265.49 4492.53 8069.34 4352.44 7878.14V8481.03C4352.44 8484.3 4351.79 8487.53 4350.52 8490.54C4349.25 8493.55 4347.4 8496.26 4345.09 8498.53C4342.78 8500.81 4340.04 8502.6 4337.05 8503.82C4334.06 8505.03 4330.87 8505.66 4327.64 8505.66H4158.01C4154.32 8505.66 4150.67 8504.93 4147.26 8503.52C4143.86 8502.1 4140.76 8500.03 4138.16 8497.42C4135.55 8494.82 4133.49 8491.72 4132.08 8488.32C4130.67 8484.91 4129.95 8481.26 4129.95 8477.58V7527.81C4129.95 7524.3 4130.64 7520.81 4131.98 7517.56L4132.24 7516.95C4133.58 7513.94 4135.46 7511.19 4137.79 7508.86L4138.26 7508.4C4140.64 7506.12 4143.43 7504.31 4146.48 7503.04L4147.09 7502.8C4150.16 7501.61 4153.43 7501 4156.74 7501H4298.62Z" fill="white" stroke="white" stroke-width="30"/>
<path d="M5211.71 7506.02C5333.87 7506.5 5458.57 7506.68 5585.8 7506.56H5585.83C5713.2 7506.68 5837.96 7506.56 5960.12 7506.2L5960.26 7506.2L5960.4 7506.2C5967.25 7506.31 5973.84 7509.05 5978.73 7513.93C5983.63 7518.82 5986.42 7525.45 5986.42 7532.42V7532.44L5986.24 7678.22C5986.23 7681.8 5985.53 7685.36 5984.16 7688.68C5982.78 7692.01 5980.76 7695.04 5978.21 7697.59C5975.65 7700.14 5972.61 7702.16 5969.25 7703.52C5965.96 7704.86 5962.43 7705.54 5958.87 7705.51V7705.51L5697.89 7704.97L5696.45 8478.44V8478.53L5696.45 8478.62C5696.35 8485.38 5693.69 8491.82 5689.05 8496.68C5684.45 8501.49 5678.26 8504.41 5671.67 8504.94L5671.67 8504.94C5671.65 8504.95 5671.62 8504.95 5671.59 8504.95C5671.56 8504.95 5671.54 8504.96 5671.51 8504.96L5671.51 8504.96C5662.13 8505.74 5633.12 8506.03 5585.78 8505.91V8505.91C5537.98 8505.91 5509.03 8505.62 5500 8504.96L5499.97 8504.96L5499.95 8504.96C5493.3 8504.46 5487.04 8501.53 5482.41 8496.68C5477.77 8491.82 5475.1 8485.38 5475.01 8478.62L5475.01 8478.53V8478.43L5473.92 7704.97L5212.77 7705.51H5212.74C5209.12 7705.51 5205.53 7704.78 5202.19 7703.37C5198.86 7701.95 5195.84 7699.89 5193.33 7697.3C5190.81 7694.71 5188.84 7691.66 5187.51 7688.31C5186.21 7685.04 5185.56 7681.55 5185.58 7678.03L5185.58 7678.03L5185.4 7532.44L5185.4 7532.44C5185.38 7529.04 5186.02 7525.66 5187.29 7522.51L5187.54 7521.91C5188.83 7518.92 5190.66 7516.21 5192.94 7513.9L5193.4 7513.44C5195.73 7511.19 5198.45 7509.4 5201.42 7508.13C5204.59 7506.79 5207.98 7506.07 5211.42 7506.02L5211.56 7506.02H5211.71Z" fill="white" stroke="white" stroke-width="30"/>
<path d="M3679.39 8846.78C3831.86 8770.04 3987.63 8786.55 4144.46 8893.68L4144.48 8893.71L4144.51 8893.72C4149.88 8897.43 4154.4 8902.25 4157.76 8907.85C4161.12 8913.44 4163.25 8919.69 4164.01 8926.17C4164.78 8932.66 4164.15 8939.23 4162.17 8945.45C4160.18 8951.67 4156.89 8957.39 4152.5 8962.23L4152.5 8962.24L4152.49 8962.24L4094.12 9026.34L4094.12 9026.34C4086.86 9034.34 4077.04 9039.55 4066.33 9041.04C4055.62 9042.52 4044.74 9040.17 4035.58 9034.4L4035.58 9034.4L4035.57 9034.4C3967.81 8991.65 3902.68 8975.51 3839.67 8984.26L3838.18 8984.47C3794.58 8990.8 3766.37 9018.27 3758.29 9048.16C3750.43 9077.25 3760.78 9111.82 3801.44 9135.69H3801.44C3832.62 9153.91 3872.98 9166.89 3917.41 9181.33C3961.11 9195.54 4008.22 9211.01 4049.8 9234.24H4049.8C4117.63 9272.07 4162.61 9319.91 4182.03 9378.42C4201.12 9435.95 4194.65 9501.27 4165.13 9573.3L4163.7 9576.74C4135.2 9644.8 4080.57 9691.09 4001.98 9716L4001.97 9716C3829.68 9770.39 3676.27 9737.77 3543.85 9618.32L3543.85 9618.32C3539.86 9614.72 3536.65 9610.36 3534.37 9605.51C3532.09 9600.65 3530.8 9595.39 3530.56 9590.04C3530.33 9584.68 3531.14 9579.33 3532.96 9574.3C3534.79 9569.26 3537.58 9564.62 3541.19 9560.66L3619.18 9474.9C3622.13 9471.67 3625.74 9469.11 3629.78 9467.41L3630.54 9467.11C3634.37 9465.63 3638.46 9464.95 3642.55 9465.11C3646.93 9465.28 3651.2 9466.41 3655.08 9468.38C3658.72 9470.24 3661.94 9472.81 3664.56 9475.92L3665.08 9476.55L3665.11 9476.59C3668.23 9480.54 3674.26 9485.88 3684.29 9492.52C3693.52 9498.63 3705.46 9505.41 3720.25 9512.85L3723.25 9514.35L3723.27 9514.36C3799.01 9552.05 3867.94 9558.5 3931.14 9535.88L3931.16 9535.88C3983.16 9517.32 3999.7 9451.15 3956.83 9414.02L3956.78 9413.98C3937.43 9397.08 3919.89 9386.55 3904.17 9381.43L3904.1 9381.41C3823.71 9354.77 3734.64 9329.59 3667.1 9284.44C3632.94 9261.6 3603.62 9233.29 3583.24 9196.51C3562.82 9159.66 3551.87 9115.21 3553.14 9060.88C3555.05 8975.45 3604.63 8884.47 3679.38 8846.79L3679.39 8846.78Z" fill="white" stroke="white" stroke-width="30"/>
<path d="M3282.81 8829.31C3289.41 8829.31 3295.76 8831.85 3300.53 8836.39L3300.99 8836.84L3301.43 8837.3C3305.95 8842.05 3308.49 8848.35 3308.51 8854.91L3309.08 8932.35C3309.67 9010.98 3310.33 9093.23 3311.05 9179.08L3311.17 9193.58C3311.7 9265.18 3311.07 9323.33 3309.27 9367.97C3307.38 9415 3304.15 9448.48 3299.08 9466.75C3250.33 9643.27 3109.94 9741.32 2928.97 9741.51C2748 9741.69 2607.42 9644.03 2558.29 9467.5L2558.29 9467.49C2553.23 9449.25 2549.95 9415.78 2547.96 9368.72C2545.95 9321.12 2545.22 9258.13 2545.77 9179.85C2546.5 9065.4 2547.1 8957.37 2547.58 8855.74C2547.58 8848.93 2550.29 8842.39 2555.11 8837.57C2559.93 8832.75 2566.47 8830.03 2573.29 8830.03H2723.54C2730.38 8830.03 2736.95 8832.67 2741.89 8837.37L2742.36 8837.83L2742.82 8838.3C2747.51 8843.24 2750.14 8849.79 2750.15 8856.6C2750.88 9086.17 2751 9250.44 2750.52 9349.38C2750.26 9406.02 2767.67 9454.32 2798.18 9488.26C2828.55 9522.04 2872.83 9542.69 2928.76 9542.69C2984.69 9542.6 3028.93 9521.87 3059.23 9488.03C3089.68 9454.03 3107.01 9405.69 3106.67 9349.05C3105.94 9250.11 3105.7 9085.84 3105.94 8856.27C3105.95 8849.22 3108.75 8842.46 3113.74 8837.47L3114.21 8837.01C3119.14 8832.31 3125.69 8829.68 3132.52 8829.67V8829.67L3282.77 8829.31H3282.81Z" fill="white" stroke="white" stroke-width="30"/>
<path d="M5014.49 8821.79C5020.79 8821.79 5026.83 8824.23 5031.36 8828.57L5031.79 8828.99L5032.21 8829.43C5036.52 8833.98 5038.91 8840.01 5038.91 8846.27V8976.1C5038.91 8982.57 5036.36 8988.78 5031.79 8993.38C5027.22 8997.98 5020.99 9000.58 5014.49 9000.58H4643.24V9176.46H4957.6C4963.91 9176.46 4969.94 9178.9 4974.47 9183.24L4974.9 9183.66L4975.33 9184.1C4979.63 9188.65 4982.02 9194.68 4982.02 9200.94V9324.57C4982.02 9331.03 4979.47 9337.25 4974.9 9341.85C4970.33 9346.45 4964.11 9349.05 4957.6 9349.05H4644.51V9532.04H5019.38C5025.68 9532.04 5031.72 9534.48 5036.25 9538.82L5036.68 9539.24L5037.1 9539.68C5041.41 9544.23 5043.8 9550.26 5043.8 9556.52V9699.48C5043.8 9705.94 5041.25 9712.16 5036.68 9716.76C5032.11 9721.36 5025.89 9723.96 5019.38 9723.96H4469.36C4462.85 9723.96 4456.63 9721.36 4452.06 9716.76C4447.49 9712.16 4444.94 9705.94 4444.94 9699.48V8846.27C4444.94 8839.81 4447.49 8833.59 4452.06 8828.99L4452.49 8828.57C4457.02 8824.23 4463.05 8821.79 4469.36 8821.79H5014.49Z" fill="white" stroke="white" stroke-width="30"/>
<path d="M2237.82 8821.79C2244.99 8821.79 2251.81 8824.62 2256.89 8829.57L2257.38 8830.05L2257.85 8830.55C2262.67 8835.73 2265.3 8842.55 2265.3 8849.57V9696.07C2265.3 9704.51 2261.98 9712.63 2256.03 9718.64C2250.08 9724.66 2241.97 9728.06 2233.48 9728.06H2088.41C2080.35 9728.06 2072.66 9724.83 2067 9719.12C2061.36 9713.42 2058.21 9705.72 2058.21 9697.72V9191.44C1981.84 9322.18 1902.59 9451.34 1820.46 9578.91L1820.45 9578.91C1811.91 9592.17 1799.51 9600.95 1783.42 9600.95V9600.95C1767.23 9601.08 1754.71 9592.29 1746.06 9578.95L1746.05 9578.94L1746.05 9578.94C1663.69 9451.59 1584.21 9322.61 1507.62 9191.99L1508.64 9698.24H1508.63C1508.66 9702.15 1507.94 9706.04 1506.49 9709.68C1505.03 9713.37 1502.86 9716.74 1500.1 9719.6C1497.33 9722.45 1494.03 9724.74 1490.38 9726.32C1486.72 9727.9 1482.79 9728.74 1478.8 9728.79L1478.64 9728.79L1333.57 9728.97L1333.57 9728.97C1329.42 9729 1325.3 9728.21 1321.46 9726.65C1317.57 9725.07 1314.04 9722.74 1311.06 9719.8C1308.08 9716.85 1305.71 9713.35 1304.08 9709.5C1302.45 9705.65 1301.59 9701.51 1301.55 9697.33L1301.54 9697.27V9697.2L1299.74 8850.7L1299.74 8850.7C1299.71 8847.13 1300.36 8843.58 1301.67 8840.24C1303 8836.86 1304.98 8833.75 1307.52 8831.11L1308 8830.62C1310.44 8828.21 1313.32 8826.26 1316.49 8824.91L1317.13 8824.64C1320.32 8823.37 1323.74 8822.71 1327.2 8822.7V8822.7L1491.43 8822.52V8822.52L1491.43 8822.52L1491.45 8822.52V8822.52C1499.62 8822.5 1507.65 8824.61 1514.77 8828.63C1521.67 8832.52 1527.49 8838.07 1531.72 8844.76L1532.13 8845.41L1532.15 8845.46L1532.18 8845.5C1618.03 8988.45 1701.62 9129.41 1782.96 9268.39C1864.06 9129.18 1947.35 8988.04 2032.84 8844.98L2032.85 8844.96L2032.86 8844.95C2037.09 8837.91 2043.05 8832.08 2050.17 8828.01C2057.3 8823.95 2065.35 8821.8 2073.56 8821.79H2237.82Z" fill="white" stroke="white" stroke-width="30"/>
<path d="M2826.54 1378.57C2656.33 1826.37 2349.96 2517.71 2114.29 2989.08L1923.14 3371.41L2014.79 3539C2174.52 3829.68 2365.67 4219.86 2423.28 4376.99L2478.27 4528.87H3101.49H3722.08L3756.12 4429.36C3808.49 4267 3981.32 3903 4135.81 3635.89L4279.83 3384.5L3994.41 2797.91C3703.75 2200.85 3525.69 1794.95 3345.01 1315.73C3269.07 1114.09 3232.41 1046 3198.37 1046C3153.86 1046 3151.24 1108.85 3151.24 2001.82V2957.65L3214.08 2983.84C3313.59 3020.5 3386.91 3135.72 3386.91 3250.95C3386.91 3387.12 3253.36 3533.76 3127.67 3533.76C2960.08 3533.76 2810.83 3397.59 2810.83 3245.71C2810.83 3156.67 2884.15 3038.83 2967.94 2996.93C3036.02 2962.89 3046.5 2941.94 3046.5 2845.05C3049.12 2588.41 3049.12 1108.85 3049.12 1077.42C3046.5 1061.71 3025.55 1046 2999.36 1046C2965.32 1046 2923.43 1127.18 2826.54 1378.57Z" fill="white"/>
<path d="M4866.39 3565.17C4764.27 3622.78 4714.52 3756.34 4751.18 3882.03C4772.12 3960.59 4766.89 3973.69 4617.63 4122.95L4460.52 4282.69V4557.66V4832.62L4120.11 5175.67L3779.7 5521.34V5992.71C3779.7 6440.5 3782.31 6464.07 3832.07 6479.78C3860.87 6487.64 3894.91 6487.64 3910.62 6479.78C3926.33 6469.31 3936.81 6293.86 3936.81 6034.6V5607.76L4274.6 5275.18L4612.39 4942.61L4622.87 4644.07L4633.34 4342.92L4787.84 4188.42C4905.67 4070.58 4960.66 4031.3 5018.27 4031.3C5062.78 4031.3 5115.15 4005.11 5154.43 3963.21C5340.35 3761.57 5102.06 3431.62 4866.39 3565.17ZM5073.26 3751.1C5096.82 3787.76 5091.59 3806.09 5054.93 3834.9C4968.52 3897.75 4869.01 3806.09 4934.47 3724.91C4973.75 3677.77 5036.6 3690.87 5073.26 3751.1Z" fill="white"/>
<path d="M1197.8 4251.26C1045.92 4403.15 1087.82 4612.65 1284.21 4688.59C1320.87 4701.68 1370.62 4706.92 1396.8 4699.06C1428.23 4688.59 1595.81 4843.09 2006.93 5259.46L2575.15 5835.58V6136.73C2575.15 6409.07 2580.39 6440.5 2624.9 6466.69C2653.71 6479.78 2695.6 6485.02 2716.55 6477.16C2750.59 6464.07 2758.45 6406.46 2758.45 6123.64V5785.82L2182.37 5186.14C1614.14 4596.93 1608.91 4589.08 1624.62 4494.8C1645.57 4356.01 1614.14 4272.21 1519.88 4214.6C1394.19 4136.04 1302.54 4146.52 1197.8 4251.26ZM1433.46 4379.58C1462.27 4400.53 1472.74 4429.34 1459.65 4458.14C1436.08 4523.61 1284.21 4507.9 1271.11 4439.81C1255.4 4356.01 1352.29 4319.35 1433.46 4379.58Z" fill="white"/>
<path d="M2428.5 4696.45C2420.65 4714.78 2418.03 4782.87 2423.26 4845.71L2431.12 4960.94L3083.14 4968.79C3567.57 4974.03 3743.01 4966.17 3771.82 4942.61C3818.95 4903.33 3803.24 4717.4 3748.25 4683.35C3729.92 4670.26 3428.79 4659.79 3077.9 4659.79C2559.43 4659.79 2438.97 4667.64 2428.5 4696.45Z" fill="white"/>
<path d="M4198.17 6142.01C4198.49 6132.14 4198.66 6121.67 4198.66 6110.55V5783.21L4541.69 5432.3C4842.82 5123.3 4884.72 5073.54 4869.01 5013.31C4848.06 4934.75 4908.28 4780.25 4976.37 4740.97C5036.59 4706.92 5183.23 4704.3 5248.7 4738.35C5308.92 4772.39 5377 4898.09 5377 4976.65C5377 5005.45 5337.73 5070.92 5287.97 5120.68C5217.27 5191.38 5177.99 5209.71 5099.44 5209.71C5002.55 5209.71 4978.99 5228.04 4690.95 5539.67L4381.96 5869.63V6155.06C4381.96 6155.06 4160.59 5973.08 4213.5 6155.06C4208.05 6150.11 4202.95 6145.77 4198.17 6142.01ZM4198.17 6142.01C4190.23 6387.76 4088.22 6255.84 4128.5 6278.5C4156.16 6293.58 4083.32 6051.59 4198.17 6142.01ZM5141.33 5013.31C5041.83 5044.73 4999.93 4963.56 5075.87 4884.99C5130.86 4832.62 5193.71 4858.81 5193.71 4934.75C5193.71 4974.03 5172.76 5002.84 5141.33 5013.31Z" fill="white"/>
<path d="M4198.17 6142.01C4198.49 6132.14 4198.66 6121.67 4198.66 6110.55V5783.21L4541.69 5432.3C4842.82 5123.3 4884.72 5073.54 4869.01 5013.31C4848.06 4934.75 4908.28 4780.25 4976.37 4740.97C5036.59 4706.92 5183.23 4704.3 5248.7 4738.35C5308.92 4772.39 5377 4898.09 5377 4976.65C5377 5005.45 5337.73 5070.92 5287.97 5120.68C5217.27 5191.38 5177.99 5209.71 5099.44 5209.71C5002.55 5209.71 4978.99 5228.04 4690.95 5539.67L4381.96 5869.63V6155.06C4381.96 6155.06 4160.59 5973.08 4213.5 6155.06C4208.05 6150.11 4202.95 6145.77 4198.17 6142.01ZM4198.17 6142.01C4190.23 6387.76 4088.22 6255.84 4128.5 6278.5C4156.16 6293.58 4083.32 6051.59 4198.17 6142.01ZM5141.33 5013.31C5041.83 5044.73 4999.93 4963.56 5075.87 4884.99C5130.86 4832.62 5193.71 4858.81 5193.71 4934.75C5193.71 4974.03 5172.76 5002.84 5141.33 5013.31Z" stroke="white"/>
<path d="M2601.53 5254.05C2601.53 5394.66 2609.38 5412.24 2784.77 5634.87L2968 5866.29V6247.12V6627.94H3282.12H3596.24V5866.29V5104.65H3098.89H2601.53V5254.05Z" fill="white"/>
<mask id="path-17-outside-1_66_3" maskUnits="userSpaceOnUse" x="0" y="-0.339844" width="6184" height="6938" fill="black">
<rect fill="white" y="-0.339844" width="6184" height="6938"/>
<path d="M2971.25 39.2812C2907.31 52.009 2871.85 61.8442 2864.3 69.3652C2860.81 72.2579 2854.99 74.572 2850.93 74.572C2831.74 74.572 2656.2 167.138 2575.98 219.207C2571.33 222.678 2563.2 226.728 2558.54 229.042C2553.89 231.356 2504.49 259.705 2448.68 292.681C2393.46 325.658 2346.96 352.271 2345.8 352.271C2345.22 352.271 2332.43 359.792 2318.48 369.627C2303.95 378.884 2290.58 386.983 2288.25 386.983C2286.51 386.983 2273.14 394.504 2259.19 404.339C2245.24 413.596 2232.45 421.696 2230.12 421.696C2228.38 421.696 2216.17 428.638 2202.22 437.316C2188.85 445.994 2172.58 455.829 2166.18 459.301C2140.61 473.186 1804.63 672.782 1784.87 685.509C1773.82 693.031 1762.2 699.394 1759.87 699.394C1757.55 699.394 1743.6 706.915 1729.07 716.751C1715.12 726.007 1702.33 734.107 1701.16 734.107C1698.84 734.107 1662.22 755.513 1512.25 844.029C1507.6 846.922 1476.21 865.435 1442.5 885.106C1408.78 904.776 1374.49 925.603 1365.77 931.389C1357.05 937.753 1348.33 942.381 1346.01 942.381C1344.26 942.381 1330.89 949.902 1316.36 959.737C1302.41 968.994 1289.62 977.093 1288.46 977.093C1286.72 977.093 1246.61 1000.23 1198.36 1029.16C1150.12 1057.51 1110.01 1081.23 1108.26 1081.23C1107.1 1081.23 1094.31 1088.75 1080.36 1098.59C1065.83 1107.84 1053.04 1115.94 1051.3 1115.94C1048.97 1115.94 1036.19 1123.46 1022.24 1133.3C1007.7 1142.56 994.335 1150.66 992.591 1150.66C990.266 1150.66 978.059 1157.6 964.108 1166.28C950.739 1174.95 934.463 1185.37 927.488 1188.84C921.094 1192.31 818.79 1252.48 700.791 1322.48C582.792 1392.48 454.331 1468.27 415.966 1490.84C328.194 1542.33 281.692 1575.88 234.609 1621.59C172.412 1681.18 114.285 1763.33 88.1275 1828.7C81.1522 1845.48 71.8518 1866.89 67.7829 1876.72C63.7139 1885.98 58.4825 1900.44 57.3199 1908.54C55.5761 1916.64 51.5072 1930.53 48.6008 1940.36C30.5813 1991.85 30 2042.18 30 3471.18C30 4712.72 31.1625 4921 38.7191 4962.07C43.3693 4988.11 49.7633 5014.72 53.251 5021.08C56.1574 5026.87 59.0637 5037.28 59.0637 5043.65C59.0637 5049.43 62.5514 5062.16 67.2016 5071.42C71.2705 5080.09 83.4773 5105.55 93.9402 5127.53C138.698 5225.31 236.353 5339.28 321.8 5394.82C367.721 5424.9 738.574 5645.9 742.643 5645.9C744.387 5645.9 752.524 5650.53 761.244 5656.9C769.963 5662.68 832.74 5699.71 900.749 5739.05C968.759 5778.39 1031.54 5815.42 1040.26 5820.62C1048.97 5826.41 1060.02 5832.77 1064.67 5835.09C1073.97 5839.14 1240.8 5936.91 1256.49 5946.75C1261.14 5950.22 1269.28 5954.27 1273.93 5956.58C1283.23 5960.63 1479.7 6075.76 1494.81 6085.59C1499.46 6088.49 1513.99 6096.59 1526.78 6103.53C1539.57 6110.47 1561.08 6123.78 1574.45 6132.46C1587.82 6141.71 1600.02 6149.23 1602.35 6149.23C1604.67 6149.23 1626.18 6161.38 1650.59 6176.43C1714.53 6214.61 1847.65 6292.71 1878.45 6310.07C1892.99 6317.59 1908.68 6328 1913.91 6332.05C1918.56 6336.68 1924.96 6340.15 1927.28 6340.15C1929.02 6340.15 1965.64 6360.4 2008.08 6385.28C2050.51 6410.73 2135.96 6460.49 2198.15 6496.36C2260.35 6532.81 2358.59 6590.08 2416.13 6624.21C2473.68 6657.77 2530.06 6690.75 2541.11 6697.11C2552.15 6702.9 2583.54 6720.83 2610.28 6736.45C2798.03 6848.11 2886.97 6884.56 3009.03 6900.76C3123.54 6916.38 3252.01 6900.76 3369.42 6856.79C3408.37 6842.32 3506.02 6793.73 3562.99 6759.59C3568.8 6756.12 3611.23 6731.82 3657.15 6705.21C3703.66 6678.6 3748.41 6651.98 3757.13 6646.2C3765.85 6639.84 3774.57 6635.21 3776.32 6635.21C3778.06 6635.21 3796.08 6625.37 3815.84 6612.64C3835.61 6600.49 3888.5 6569.25 3933.26 6543.22C3978.02 6517.18 4018.71 6493.46 4023.36 6490.57C4028.01 6487.68 4042.54 6479.58 4055.33 6472.64C4068.12 6465.69 4089.62 6452.39 4102.99 6443.71C4116.36 6434.45 4128.57 6426.93 4129.73 6426.93C4132.06 6426.93 4256.45 6355.77 4290.74 6334.37C4309.93 6322.8 4451.18 6237.75 4473.84 6224.44C4487.21 6216.34 4515.7 6199.57 4537.2 6186.84C4558.71 6174.11 4587.19 6157.33 4600.56 6150.39C4613.93 6142.87 4673.22 6108.16 4732.51 6072.87C4791.8 6038.15 4844.12 6007.49 4848.77 6004.6C4853.42 6001.71 4888.88 5980.88 4927.24 5957.74C4965.6 5934.6 5003.39 5912.03 5011.52 5907.4C5019.66 5903.35 5034.19 5894.68 5043.49 5888.89C5053.38 5882.53 5065 5875.58 5069.65 5873.27C5074.3 5870.96 5124.29 5842.03 5180.09 5809.05C5235.9 5775.5 5347.5 5710.12 5427.14 5663.26C5879.37 5398.29 5877.04 5400.03 5951.45 5330.6C6002.6 5283.16 6049.68 5222.41 6078.16 5168.03C6089.21 5146.63 6100.83 5126.38 6103.16 5122.91C6110.71 5113.07 6131.64 5041.33 6142.1 4990.42C6150.24 4949.92 6151.4 4786.2 6152.57 3486.22C6153.73 2100.62 6153.15 2024.25 6143.27 1975.07C6111.3 1815.98 6029.92 1681.18 5904.36 1578.77C5856.12 1540.01 5813.1 1512.24 5697.43 1445.71C5650.93 1419.1 5545.13 1357.77 5462.01 1309.75C5378.89 1261.16 5301.58 1216.61 5290.54 1210.24C5279.49 1204.46 5259.15 1192.31 5245.78 1183.63C5231.83 1174.95 5219.62 1168.01 5218.46 1168.01C5215.55 1168.01 5017.92 1052.88 4999.9 1040.73C4995.25 1037.26 4987.11 1033.21 4982.46 1030.9C4973.16 1026.85 4805.75 929.075 4790.64 919.239C4785.99 915.768 4777.85 911.718 4773.2 909.404C4768.55 907.09 4712.75 874.692 4649.39 837.087C4586.61 799.482 4533.14 768.819 4531.39 768.819C4529.65 768.819 4517.44 761.298 4504.07 752.042C4490.7 743.363 4469.19 730.057 4456.41 723.115C4443.62 716.172 4418.62 702.287 4401.19 691.873C4383.75 681.46 4348.87 661.789 4323.88 647.326C4298.88 632.862 4237.27 596.993 4187.28 567.487C4137.29 537.403 4080.32 505.005 4061.14 494.013C4041.96 483.599 3996.04 457.565 3959.42 436.159C3922.8 414.753 3882.11 391.033 3869.32 384.091C3856.53 376.57 3819.33 355.164 3786.2 335.493C3753.06 315.823 3725.16 300.202 3724 300.202C3722.84 300.202 3689.71 281.111 3650.18 257.969C3610.65 234.827 3574.61 214 3569.96 211.686C3565.31 209.372 3553.69 202.429 3543.81 196.065C3534.51 189.701 3521.14 182.18 3514.74 178.709C3508.35 175.238 3487.42 163.667 3468.24 152.675C3436.85 134.162 3352.57 92.5068 3322.92 80.3574C3316.53 78.0433 3300.83 71.6793 3288.04 66.4725C3200.85 31.1816 3069.49 20.1894 2971.25 39.2812ZM3165.98 300.202C3212.48 305.409 3253.17 318.716 3311.88 348.221C3356.05 369.627 3365.94 375.412 3491.49 447.73C3536.25 473.764 3624.02 524.097 3686.22 560.545C3748.41 596.414 3808.87 631.705 3819.91 638.648C3830.96 645.59 3858.86 661.789 3880.94 674.517C3903.61 687.824 3974.53 729.478 4039.63 768.241C4104.74 807.003 4158.79 838.244 4159.96 838.244C4161.12 838.244 4207.04 864.857 4262.84 897.833C4318.06 930.81 4367.47 959.159 4372.12 961.473C4376.77 963.787 4384.91 967.837 4389.56 971.308C4403.51 980.565 4600.56 1095.69 4610.44 1100.32C4615.09 1102.64 4627.3 1109.58 4636.6 1115.94C4646.48 1122.31 4662.18 1131.56 4671.48 1136.77C4681.36 1141.98 4742.39 1177.85 4808.08 1216.03C4873.76 1254.21 4961.53 1305.7 5002.8 1330C5044.66 1354.3 5082.44 1375.71 5087.09 1378.02C5091.74 1380.34 5103.95 1387.28 5113.25 1393.64C5123.13 1400.01 5138.24 1409.26 5147.54 1414.47C5156.84 1419.68 5220.78 1457.28 5289.95 1497.78C5359.13 1538.28 5424.81 1576.46 5435.85 1582.82C5499.21 1618.11 5644.53 1703.16 5657.9 1712.42C5666.62 1718.78 5674.76 1723.41 5676.5 1723.41C5698.01 1723.41 5820.66 1840.85 5842.75 1881.93C5850.88 1896.97 5863.09 1920.11 5870.07 1933.42C5877.04 1946.73 5882.85 1962.92 5882.85 1969.87C5883.44 1976.23 5885.76 1983.75 5888.09 1987.22C5906.11 2007.47 5907.27 2072.85 5906.69 3494.32C5906.69 4872.98 5905.52 4949.34 5889.83 4989.26C5884.02 5003.73 5860.19 5052.9 5849.14 5071.99C5837.52 5093.4 5756.72 5175.55 5720.1 5203.9C5692.2 5225.31 5514.91 5333.49 5507.93 5333.49C5506.19 5333.49 5488.75 5343.33 5468.99 5356.06C5449.22 5368.21 5370.17 5415.07 5293.44 5460.19C5216.71 5505.32 5149.87 5544.66 5145.22 5547.55C5124.29 5560.28 5061.51 5597.31 5047.56 5605.41C5003.97 5630.86 4995.83 5635.49 4979.55 5645.9C4970.25 5652.27 4958.05 5659.21 4953.4 5661.53C4948.75 5663.84 4892.36 5696.24 4828.42 5734.42C4764.48 5772.03 4700.54 5809.63 4686.01 5817.73C4630.79 5848.39 4146.59 6132.46 4113.45 6153.86C4107.06 6157.33 4097.76 6162.54 4093.11 6164.85C4088.46 6167.17 4046.61 6191.47 4000.11 6218.66C3953.6 6246.43 3900.13 6277.09 3880.94 6287.5C3861.76 6297.92 3836.77 6312.38 3825.72 6319.9C3806.54 6332.05 3692.03 6399.74 3645.53 6425.2C3624.02 6437.35 3439.18 6544.95 3424.64 6554.21C3407.21 6565.2 3316.53 6608.02 3288.04 6619.01C3178.18 6661.82 3021.82 6661.82 2908.47 6619.01C2873.6 6605.7 2748.62 6540.91 2709.68 6516.03C2673.06 6492.89 2671.89 6491.73 2562.61 6428.67C2509.14 6397.43 2448.68 6362.14 2428.92 6350.57C2409.16 6338.99 2388.81 6327.42 2384.16 6325.11C2377.19 6321.64 2300.46 6276.51 2192.34 6212.87C2187.69 6209.98 2155.14 6191.47 2119.68 6171.8C2084.81 6152.13 2052.25 6133.03 2047.6 6129.56C2043.54 6126.09 2026.1 6115.1 2009.24 6105.84C1992.38 6096.01 1964.48 6080.39 1947.04 6070.55C1916.24 6052.62 1763.36 5963.52 1726.74 5941.54C1715.7 5935.17 1695.35 5923.03 1680.82 5914.93C1666.29 5906.83 1650.59 5897.57 1645.94 5894.68C1625.6 5881.95 1517.48 5819.47 1515.16 5819.47C1513.99 5819.47 1501.79 5812.52 1487.84 5803.27C1449.47 5778.97 1441.33 5774.34 1417.5 5761.61C1405.3 5754.67 1350.66 5722.85 1295.43 5690.45C1240.21 5657.48 1172.2 5616.98 1143.14 5600.78C1114.66 5584 1086.76 5567.8 1082.11 5564.91C1067.58 5556.23 925.163 5472.92 881.567 5448.04C859.479 5434.74 833.903 5419.7 825.184 5413.91C816.465 5407.55 808.327 5402.92 807.164 5402.92C805.42 5402.92 758.918 5375.73 702.535 5342.75C646.732 5309.77 585.699 5274.48 567.098 5264.07C457.818 5203.9 382.834 5143.15 337.494 5078.36C313.662 5043.07 285.761 4985.21 285.761 4969.59C285.761 4964.39 281.692 4949.92 277.042 4937.19C270.066 4917.52 268.904 4715.61 268.323 3495.47C268.323 2488.24 270.066 2072.27 274.717 2060.7C278.204 2052.02 282.854 2032.93 285.761 2018.46C290.992 1988.96 312.499 1929.95 325.288 1908.54C387.484 1805.56 442.705 1758.12 619.994 1655.72C658.358 1633.74 700.791 1608.28 714.16 1600.18C728.111 1591.5 740.318 1584.56 741.48 1584.56C743.224 1584.56 765.894 1571.25 792.632 1555.05C819.371 1538.28 850.179 1519.76 861.223 1513.98C872.267 1507.61 908.887 1486.21 942.601 1465.96C976.315 1446.29 1043.74 1405.79 1092.57 1376.86C1141.4 1347.94 1182.09 1324.22 1183.25 1324.22C1184.41 1324.22 1237.31 1293.55 1300.67 1255.95C1364.61 1218.34 1420.41 1185.95 1425.06 1183.63C1429.71 1181.32 1441.92 1174.38 1451.8 1168.59C1461.68 1162.23 1518.06 1129.83 1576.77 1095.69C1635.48 1060.98 1690.7 1028.58 1699.42 1022.8C1708.14 1016.43 1716.86 1011.81 1718.6 1011.81C1720.35 1011.81 1808.7 960.316 1915.07 896.676C2020.87 833.616 2117.36 776.34 2128.4 770.555C2157.47 754.356 2360.33 634.02 2419.04 598.15C2446.36 581.372 2481.82 560.545 2497.51 552.445C2513.79 543.767 2541.11 528.147 2558.54 517.155C2575.98 506.162 2594.58 495.17 2599.23 492.856C2606.79 489.385 2766.64 396.24 2791.05 381.198C2904.98 311.195 3030.54 284.003 3165.98 300.202Z"/>
</mask>
<path d="M2971.25 39.2812C2907.31 52.009 2871.85 61.8442 2864.3 69.3652C2860.81 72.2579 2854.99 74.572 2850.93 74.572C2831.74 74.572 2656.2 167.138 2575.98 219.207C2571.33 222.678 2563.2 226.728 2558.54 229.042C2553.89 231.356 2504.49 259.705 2448.68 292.681C2393.46 325.658 2346.96 352.271 2345.8 352.271C2345.22 352.271 2332.43 359.792 2318.48 369.627C2303.95 378.884 2290.58 386.983 2288.25 386.983C2286.51 386.983 2273.14 394.504 2259.19 404.339C2245.24 413.596 2232.45 421.696 2230.12 421.696C2228.38 421.696 2216.17 428.638 2202.22 437.316C2188.85 445.994 2172.58 455.829 2166.18 459.301C2140.61 473.186 1804.63 672.782 1784.87 685.509C1773.82 693.031 1762.2 699.394 1759.87 699.394C1757.55 699.394 1743.6 706.915 1729.07 716.751C1715.12 726.007 1702.33 734.107 1701.16 734.107C1698.84 734.107 1662.22 755.513 1512.25 844.029C1507.6 846.922 1476.21 865.435 1442.5 885.106C1408.78 904.776 1374.49 925.603 1365.77 931.389C1357.05 937.753 1348.33 942.381 1346.01 942.381C1344.26 942.381 1330.89 949.902 1316.36 959.737C1302.41 968.994 1289.62 977.093 1288.46 977.093C1286.72 977.093 1246.61 1000.23 1198.36 1029.16C1150.12 1057.51 1110.01 1081.23 1108.26 1081.23C1107.1 1081.23 1094.31 1088.75 1080.36 1098.59C1065.83 1107.84 1053.04 1115.94 1051.3 1115.94C1048.97 1115.94 1036.19 1123.46 1022.24 1133.3C1007.7 1142.56 994.335 1150.66 992.591 1150.66C990.266 1150.66 978.059 1157.6 964.108 1166.28C950.739 1174.95 934.463 1185.37 927.488 1188.84C921.094 1192.31 818.79 1252.48 700.791 1322.48C582.792 1392.48 454.331 1468.27 415.966 1490.84C328.194 1542.33 281.692 1575.88 234.609 1621.59C172.412 1681.18 114.285 1763.33 88.1275 1828.7C81.1522 1845.48 71.8518 1866.89 67.7829 1876.72C63.7139 1885.98 58.4825 1900.44 57.3199 1908.54C55.5761 1916.64 51.5072 1930.53 48.6008 1940.36C30.5813 1991.85 30 2042.18 30 3471.18C30 4712.72 31.1625 4921 38.7191 4962.07C43.3693 4988.11 49.7633 5014.72 53.251 5021.08C56.1574 5026.87 59.0637 5037.28 59.0637 5043.65C59.0637 5049.43 62.5514 5062.16 67.2016 5071.42C71.2705 5080.09 83.4773 5105.55 93.9402 5127.53C138.698 5225.31 236.353 5339.28 321.8 5394.82C367.721 5424.9 738.574 5645.9 742.643 5645.9C744.387 5645.9 752.524 5650.53 761.244 5656.9C769.963 5662.68 832.74 5699.71 900.749 5739.05C968.759 5778.39 1031.54 5815.42 1040.26 5820.62C1048.97 5826.41 1060.02 5832.77 1064.67 5835.09C1073.97 5839.14 1240.8 5936.91 1256.49 5946.75C1261.14 5950.22 1269.28 5954.27 1273.93 5956.58C1283.23 5960.63 1479.7 6075.76 1494.81 6085.59C1499.46 6088.49 1513.99 6096.59 1526.78 6103.53C1539.57 6110.47 1561.08 6123.78 1574.45 6132.46C1587.82 6141.71 1600.02 6149.23 1602.35 6149.23C1604.67 6149.23 1626.18 6161.38 1650.59 6176.43C1714.53 6214.61 1847.65 6292.71 1878.45 6310.07C1892.99 6317.59 1908.68 6328 1913.91 6332.05C1918.56 6336.68 1924.96 6340.15 1927.28 6340.15C1929.02 6340.15 1965.64 6360.4 2008.08 6385.28C2050.51 6410.73 2135.96 6460.49 2198.15 6496.36C2260.35 6532.81 2358.59 6590.08 2416.13 6624.21C2473.68 6657.77 2530.06 6690.75 2541.11 6697.11C2552.15 6702.9 2583.54 6720.83 2610.28 6736.45C2798.03 6848.11 2886.97 6884.56 3009.03 6900.76C3123.54 6916.38 3252.01 6900.76 3369.42 6856.79C3408.37 6842.32 3506.02 6793.73 3562.99 6759.59C3568.8 6756.12 3611.23 6731.82 3657.15 6705.21C3703.66 6678.6 3748.41 6651.98 3757.13 6646.2C3765.85 6639.84 3774.57 6635.21 3776.32 6635.21C3778.06 6635.21 3796.08 6625.37 3815.84 6612.64C3835.61 6600.49 3888.5 6569.25 3933.26 6543.22C3978.02 6517.18 4018.71 6493.46 4023.36 6490.57C4028.01 6487.68 4042.54 6479.58 4055.33 6472.64C4068.12 6465.69 4089.62 6452.39 4102.99 6443.71C4116.36 6434.45 4128.57 6426.93 4129.73 6426.93C4132.06 6426.93 4256.45 6355.77 4290.74 6334.37C4309.93 6322.8 4451.18 6237.75 4473.84 6224.44C4487.21 6216.34 4515.7 6199.57 4537.2 6186.84C4558.71 6174.11 4587.19 6157.33 4600.56 6150.39C4613.93 6142.87 4673.22 6108.16 4732.51 6072.87C4791.8 6038.15 4844.12 6007.49 4848.77 6004.6C4853.42 6001.71 4888.88 5980.88 4927.24 5957.74C4965.6 5934.6 5003.39 5912.03 5011.52 5907.4C5019.66 5903.35 5034.19 5894.68 5043.49 5888.89C5053.38 5882.53 5065 5875.58 5069.65 5873.27C5074.3 5870.96 5124.29 5842.03 5180.09 5809.05C5235.9 5775.5 5347.5 5710.12 5427.14 5663.26C5879.37 5398.29 5877.04 5400.03 5951.45 5330.6C6002.6 5283.16 6049.68 5222.41 6078.16 5168.03C6089.21 5146.63 6100.83 5126.38 6103.16 5122.91C6110.71 5113.07 6131.64 5041.33 6142.1 4990.42C6150.24 4949.92 6151.4 4786.2 6152.57 3486.22C6153.73 2100.62 6153.15 2024.25 6143.27 1975.07C6111.3 1815.98 6029.92 1681.18 5904.36 1578.77C5856.12 1540.01 5813.1 1512.24 5697.43 1445.71C5650.93 1419.1 5545.13 1357.77 5462.01 1309.75C5378.89 1261.16 5301.58 1216.61 5290.54 1210.24C5279.49 1204.46 5259.15 1192.31 5245.78 1183.63C5231.83 1174.95 5219.62 1168.01 5218.46 1168.01C5215.55 1168.01 5017.92 1052.88 4999.9 1040.73C4995.25 1037.26 4987.11 1033.21 4982.46 1030.9C4973.16 1026.85 4805.75 929.075 4790.64 919.239C4785.99 915.768 4777.85 911.718 4773.2 909.404C4768.55 907.09 4712.75 874.692 4649.39 837.087C4586.61 799.482 4533.14 768.819 4531.39 768.819C4529.65 768.819 4517.44 761.298 4504.07 752.042C4490.7 743.363 4469.19 730.057 4456.41 723.115C4443.62 716.172 4418.62 702.287 4401.19 691.873C4383.75 681.46 4348.87 661.789 4323.88 647.326C4298.88 632.862 4237.27 596.993 4187.28 567.487C4137.29 537.403 4080.32 505.005 4061.14 494.013C4041.96 483.599 3996.04 457.565 3959.42 436.159C3922.8 414.753 3882.11 391.033 3869.32 384.091C3856.53 376.57 3819.33 355.164 3786.2 335.493C3753.06 315.823 3725.16 300.202 3724 300.202C3722.84 300.202 3689.71 281.111 3650.18 257.969C3610.65 234.827 3574.61 214 3569.96 211.686C3565.31 209.372 3553.69 202.429 3543.81 196.065C3534.51 189.701 3521.14 182.18 3514.74 178.709C3508.35 175.238 3487.42 163.667 3468.24 152.675C3436.85 134.162 3352.57 92.5068 3322.92 80.3574C3316.53 78.0433 3300.83 71.6793 3288.04 66.4725C3200.85 31.1816 3069.49 20.1894 2971.25 39.2812ZM3165.98 300.202C3212.48 305.409 3253.17 318.716 3311.88 348.221C3356.05 369.627 3365.94 375.412 3491.49 447.73C3536.25 473.764 3624.02 524.097 3686.22 560.545C3748.41 596.414 3808.87 631.705 3819.91 638.648C3830.96 645.59 3858.86 661.789 3880.94 674.517C3903.61 687.824 3974.53 729.478 4039.63 768.241C4104.74 807.003 4158.79 838.244 4159.96 838.244C4161.12 838.244 4207.04 864.857 4262.84 897.833C4318.06 930.81 4367.47 959.159 4372.12 961.473C4376.77 963.787 4384.91 967.837 4389.56 971.308C4403.51 980.565 4600.56 1095.69 4610.44 1100.32C4615.09 1102.64 4627.3 1109.58 4636.6 1115.94C4646.48 1122.31 4662.18 1131.56 4671.48 1136.77C4681.36 1141.98 4742.39 1177.85 4808.08 1216.03C4873.76 1254.21 4961.53 1305.7 5002.8 1330C5044.66 1354.3 5082.44 1375.71 5087.09 1378.02C5091.74 1380.34 5103.95 1387.28 5113.25 1393.64C5123.13 1400.01 5138.24 1409.26 5147.54 1414.47C5156.84 1419.68 5220.78 1457.28 5289.95 1497.78C5359.13 1538.28 5424.81 1576.46 5435.85 1582.82C5499.21 1618.11 5644.53 1703.16 5657.9 1712.42C5666.62 1718.78 5674.76 1723.41 5676.5 1723.41C5698.01 1723.41 5820.66 1840.85 5842.75 1881.93C5850.88 1896.97 5863.09 1920.11 5870.07 1933.42C5877.04 1946.73 5882.85 1962.92 5882.85 1969.87C5883.44 1976.23 5885.76 1983.75 5888.09 1987.22C5906.11 2007.47 5907.27 2072.85 5906.69 3494.32C5906.69 4872.98 5905.52 4949.34 5889.83 4989.26C5884.02 5003.73 5860.19 5052.9 5849.14 5071.99C5837.52 5093.4 5756.72 5175.55 5720.1 5203.9C5692.2 5225.31 5514.91 5333.49 5507.93 5333.49C5506.19 5333.49 5488.75 5343.33 5468.99 5356.06C5449.22 5368.21 5370.17 5415.07 5293.44 5460.19C5216.71 5505.32 5149.87 5544.66 5145.22 5547.55C5124.29 5560.28 5061.51 5597.31 5047.56 5605.41C5003.97 5630.86 4995.83 5635.49 4979.55 5645.9C4970.25 5652.27 4958.05 5659.21 4953.4 5661.53C4948.75 5663.84 4892.36 5696.24 4828.42 5734.42C4764.48 5772.03 4700.54 5809.63 4686.01 5817.73C4630.79 5848.39 4146.59 6132.46 4113.45 6153.86C4107.06 6157.33 4097.76 6162.54 4093.11 6164.85C4088.46 6167.17 4046.61 6191.47 4000.11 6218.66C3953.6 6246.43 3900.13 6277.09 3880.94 6287.5C3861.76 6297.92 3836.77 6312.38 3825.72 6319.9C3806.54 6332.05 3692.03 6399.74 3645.53 6425.2C3624.02 6437.35 3439.18 6544.95 3424.64 6554.21C3407.21 6565.2 3316.53 6608.02 3288.04 6619.01C3178.18 6661.82 3021.82 6661.82 2908.47 6619.01C2873.6 6605.7 2748.62 6540.91 2709.68 6516.03C2673.06 6492.89 2671.89 6491.73 2562.61 6428.67C2509.14 6397.43 2448.68 6362.14 2428.92 6350.57C2409.16 6338.99 2388.81 6327.42 2384.16 6325.11C2377.19 6321.64 2300.46 6276.51 2192.34 6212.87C2187.69 6209.98 2155.14 6191.47 2119.68 6171.8C2084.81 6152.13 2052.25 6133.03 2047.6 6129.56C2043.54 6126.09 2026.1 6115.1 2009.24 6105.84C1992.38 6096.01 1964.48 6080.39 1947.04 6070.55C1916.24 6052.62 1763.36 5963.52 1726.74 5941.54C1715.7 5935.17 1695.35 5923.03 1680.82 5914.93C1666.29 5906.83 1650.59 5897.57 1645.94 5894.68C1625.6 5881.95 1517.48 5819.47 1515.16 5819.47C1513.99 5819.47 1501.79 5812.52 1487.84 5803.27C1449.47 5778.97 1441.33 5774.34 1417.5 5761.61C1405.3 5754.67 1350.66 5722.85 1295.43 5690.45C1240.21 5657.48 1172.2 5616.98 1143.14 5600.78C1114.66 5584 1086.76 5567.8 1082.11 5564.91C1067.58 5556.23 925.163 5472.92 881.567 5448.04C859.479 5434.74 833.903 5419.7 825.184 5413.91C816.465 5407.55 808.327 5402.92 807.164 5402.92C805.42 5402.92 758.918 5375.73 702.535 5342.75C646.732 5309.77 585.699 5274.48 567.098 5264.07C457.818 5203.9 382.834 5143.15 337.494 5078.36C313.662 5043.07 285.761 4985.21 285.761 4969.59C285.761 4964.39 281.692 4949.92 277.042 4937.19C270.066 4917.52 268.904 4715.61 268.323 3495.47C268.323 2488.24 270.066 2072.27 274.717 2060.7C278.204 2052.02 282.854 2032.93 285.761 2018.46C290.992 1988.96 312.499 1929.95 325.288 1908.54C387.484 1805.56 442.705 1758.12 619.994 1655.72C658.358 1633.74 700.791 1608.28 714.16 1600.18C728.111 1591.5 740.318 1584.56 741.48 1584.56C743.224 1584.56 765.894 1571.25 792.632 1555.05C819.371 1538.28 850.179 1519.76 861.223 1513.98C872.267 1507.61 908.887 1486.21 942.601 1465.96C976.315 1446.29 1043.74 1405.79 1092.57 1376.86C1141.4 1347.94 1182.09 1324.22 1183.25 1324.22C1184.41 1324.22 1237.31 1293.55 1300.67 1255.95C1364.61 1218.34 1420.41 1185.95 1425.06 1183.63C1429.71 1181.32 1441.92 1174.38 1451.8 1168.59C1461.68 1162.23 1518.06 1129.83 1576.77 1095.69C1635.48 1060.98 1690.7 1028.58 1699.42 1022.8C1708.14 1016.43 1716.86 1011.81 1718.6 1011.81C1720.35 1011.81 1808.7 960.316 1915.07 896.676C2020.87 833.616 2117.36 776.34 2128.4 770.555C2157.47 754.356 2360.33 634.02 2419.04 598.15C2446.36 581.372 2481.82 560.545 2497.51 552.445C2513.79 543.767 2541.11 528.147 2558.54 517.155C2575.98 506.162 2594.58 495.17 2599.23 492.856C2606.79 489.385 2766.64 396.24 2791.05 381.198C2904.98 311.195 3030.54 284.003 3165.98 300.202Z" fill="white"/>
<path d="M2971.25 39.2812C2907.31 52.009 2871.85 61.8442 2864.3 69.3652C2860.81 72.2579 2854.99 74.572 2850.93 74.572C2831.74 74.572 2656.2 167.138 2575.98 219.207C2571.33 222.678 2563.2 226.728 2558.54 229.042C2553.89 231.356 2504.49 259.705 2448.68 292.681C2393.46 325.658 2346.96 352.271 2345.8 352.271C2345.22 352.271 2332.43 359.792 2318.48 369.627C2303.95 378.884 2290.58 386.983 2288.25 386.983C2286.51 386.983 2273.14 394.504 2259.19 404.339C2245.24 413.596 2232.45 421.696 2230.12 421.696C2228.38 421.696 2216.17 428.638 2202.22 437.316C2188.85 445.994 2172.58 455.829 2166.18 459.301C2140.61 473.186 1804.63 672.782 1784.87 685.509C1773.82 693.031 1762.2 699.394 1759.87 699.394C1757.55 699.394 1743.6 706.915 1729.07 716.751C1715.12 726.007 1702.33 734.107 1701.16 734.107C1698.84 734.107 1662.22 755.513 1512.25 844.029C1507.6 846.922 1476.21 865.435 1442.5 885.106C1408.78 904.776 1374.49 925.603 1365.77 931.389C1357.05 937.753 1348.33 942.381 1346.01 942.381C1344.26 942.381 1330.89 949.902 1316.36 959.737C1302.41 968.994 1289.62 977.093 1288.46 977.093C1286.72 977.093 1246.61 1000.23 1198.36 1029.16C1150.12 1057.51 1110.01 1081.23 1108.26 1081.23C1107.1 1081.23 1094.31 1088.75 1080.36 1098.59C1065.83 1107.84 1053.04 1115.94 1051.3 1115.94C1048.97 1115.94 1036.19 1123.46 1022.24 1133.3C1007.7 1142.56 994.335 1150.66 992.591 1150.66C990.266 1150.66 978.059 1157.6 964.108 1166.28C950.739 1174.95 934.463 1185.37 927.488 1188.84C921.094 1192.31 818.79 1252.48 700.791 1322.48C582.792 1392.48 454.331 1468.27 415.966 1490.84C328.194 1542.33 281.692 1575.88 234.609 1621.59C172.412 1681.18 114.285 1763.33 88.1275 1828.7C81.1522 1845.48 71.8518 1866.89 67.7829 1876.72C63.7139 1885.98 58.4825 1900.44 57.3199 1908.54C55.5761 1916.64 51.5072 1930.53 48.6008 1940.36C30.5813 1991.85 30 2042.18 30 3471.18C30 4712.72 31.1625 4921 38.7191 4962.07C43.3693 4988.11 49.7633 5014.72 53.251 5021.08C56.1574 5026.87 59.0637 5037.28 59.0637 5043.65C59.0637 5049.43 62.5514 5062.16 67.2016 5071.42C71.2705 5080.09 83.4773 5105.55 93.9402 5127.53C138.698 5225.31 236.353 5339.28 321.8 5394.82C367.721 5424.9 738.574 5645.9 742.643 5645.9C744.387 5645.9 752.524 5650.53 761.244 5656.9C769.963 5662.68 832.74 5699.71 900.749 5739.05C968.759 5778.39 1031.54 5815.42 1040.26 5820.62C1048.97 5826.41 1060.02 5832.77 1064.67 5835.09C1073.97 5839.14 1240.8 5936.91 1256.49 5946.75C1261.14 5950.22 1269.28 5954.27 1273.93 5956.58C1283.23 5960.63 1479.7 6075.76 1494.81 6085.59C1499.46 6088.49 1513.99 6096.59 1526.78 6103.53C1539.57 6110.47 1561.08 6123.78 1574.45 6132.46C1587.82 6141.71 1600.02 6149.23 1602.35 6149.23C1604.67 6149.23 1626.18 6161.38 1650.59 6176.43C1714.53 6214.61 1847.65 6292.71 1878.45 6310.07C1892.99 6317.59 1908.68 6328 1913.91 6332.05C1918.56 6336.68 1924.96 6340.15 1927.28 6340.15C1929.02 6340.15 1965.64 6360.4 2008.08 6385.28C2050.51 6410.73 2135.96 6460.49 2198.15 6496.36C2260.35 6532.81 2358.59 6590.08 2416.13 6624.21C2473.68 6657.77 2530.06 6690.75 2541.11 6697.11C2552.15 6702.9 2583.54 6720.83 2610.28 6736.45C2798.03 6848.11 2886.97 6884.56 3009.03 6900.76C3123.54 6916.38 3252.01 6900.76 3369.42 6856.79C3408.37 6842.32 3506.02 6793.73 3562.99 6759.59C3568.8 6756.12 3611.23 6731.82 3657.15 6705.21C3703.66 6678.6 3748.41 6651.98 3757.13 6646.2C3765.85 6639.84 3774.57 6635.21 3776.32 6635.21C3778.06 6635.21 3796.08 6625.37 3815.84 6612.64C3835.61 6600.49 3888.5 6569.25 3933.26 6543.22C3978.02 6517.18 4018.71 6493.46 4023.36 6490.57C4028.01 6487.68 4042.54 6479.58 4055.33 6472.64C4068.12 6465.69 4089.62 6452.39 4102.99 6443.71C4116.36 6434.45 4128.57 6426.93 4129.73 6426.93C4132.06 6426.93 4256.45 6355.77 4290.74 6334.37C4309.93 6322.8 4451.18 6237.75 4473.84 6224.44C4487.21 6216.34 4515.7 6199.57 4537.2 6186.84C4558.71 6174.11 4587.19 6157.33 4600.56 6150.39C4613.93 6142.87 4673.22 6108.16 4732.51 6072.87C4791.8 6038.15 4844.12 6007.49 4848.77 6004.6C4853.42 6001.71 4888.88 5980.88 4927.24 5957.74C4965.6 5934.6 5003.39 5912.03 5011.52 5907.4C5019.66 5903.35 5034.19 5894.68 5043.49 5888.89C5053.38 5882.53 5065 5875.58 5069.65 5873.27C5074.3 5870.96 5124.29 5842.03 5180.09 5809.05C5235.9 5775.5 5347.5 5710.12 5427.14 5663.26C5879.37 5398.29 5877.04 5400.03 5951.45 5330.6C6002.6 5283.16 6049.68 5222.41 6078.16 5168.03C6089.21 5146.63 6100.83 5126.38 6103.16 5122.91C6110.71 5113.07 6131.64 5041.33 6142.1 4990.42C6150.24 4949.92 6151.4 4786.2 6152.57 3486.22C6153.73 2100.62 6153.15 2024.25 6143.27 1975.07C6111.3 1815.98 6029.92 1681.18 5904.36 1578.77C5856.12 1540.01 5813.1 1512.24 5697.43 1445.71C5650.93 1419.1 5545.13 1357.77 5462.01 1309.75C5378.89 1261.16 5301.58 1216.61 5290.54 1210.24C5279.49 1204.46 5259.15 1192.31 5245.78 1183.63C5231.83 1174.95 5219.62 1168.01 5218.46 1168.01C5215.55 1168.01 5017.92 1052.88 4999.9 1040.73C4995.25 1037.26 4987.11 1033.21 4982.46 1030.9C4973.16 1026.85 4805.75 929.075 4790.64 919.239C4785.99 915.768 4777.85 911.718 4773.2 909.404C4768.55 907.09 4712.75 874.692 4649.39 837.087C4586.61 799.482 4533.14 768.819 4531.39 768.819C4529.65 768.819 4517.44 761.298 4504.07 752.042C4490.7 743.363 4469.19 730.057 4456.41 723.115C4443.62 716.172 4418.62 702.287 4401.19 691.873C4383.75 681.46 4348.87 661.789 4323.88 647.326C4298.88 632.862 4237.27 596.993 4187.28 567.487C4137.29 537.403 4080.32 505.005 4061.14 494.013C4041.96 483.599 3996.04 457.565 3959.42 436.159C3922.8 414.753 3882.11 391.033 3869.32 384.091C3856.53 376.57 3819.33 355.164 3786.2 335.493C3753.06 315.823 3725.16 300.202 3724 300.202C3722.84 300.202 3689.71 281.111 3650.18 257.969C3610.65 234.827 3574.61 214 3569.96 211.686C3565.31 209.372 3553.69 202.429 3543.81 196.065C3534.51 189.701 3521.14 182.18 3514.74 178.709C3508.35 175.238 3487.42 163.667 3468.24 152.675C3436.85 134.162 3352.57 92.5068 3322.92 80.3574C3316.53 78.0433 3300.83 71.6793 3288.04 66.4725C3200.85 31.1816 3069.49 20.1894 2971.25 39.2812ZM3165.98 300.202C3212.48 305.409 3253.17 318.716 3311.88 348.221C3356.05 369.627 3365.94 375.412 3491.49 447.73C3536.25 473.764 3624.02 524.097 3686.22 560.545C3748.41 596.414 3808.87 631.705 3819.91 638.648C3830.96 645.59 3858.86 661.789 3880.94 674.517C3903.61 687.824 3974.53 729.478 4039.63 768.241C4104.74 807.003 4158.79 838.244 4159.96 838.244C4161.12 838.244 4207.04 864.857 4262.84 897.833C4318.06 930.81 4367.47 959.159 4372.12 961.473C4376.77 963.787 4384.91 967.837 4389.56 971.308C4403.51 980.565 4600.56 1095.69 4610.44 1100.32C4615.09 1102.64 4627.3 1109.58 4636.6 1115.94C4646.48 1122.31 4662.18 1131.56 4671.48 1136.77C4681.36 1141.98 4742.39 1177.85 4808.08 1216.03C4873.76 1254.21 4961.53 1305.7 5002.8 1330C5044.66 1354.3 5082.44 1375.71 5087.09 1378.02C5091.74 1380.34 5103.95 1387.28 5113.25 1393.64C5123.13 1400.01 5138.24 1409.26 5147.54 1414.47C5156.84 1419.68 5220.78 1457.28 5289.95 1497.78C5359.13 1538.28 5424.81 1576.46 5435.85 1582.82C5499.21 1618.11 5644.53 1703.16 5657.9 1712.42C5666.62 1718.78 5674.76 1723.41 5676.5 1723.41C5698.01 1723.41 5820.66 1840.85 5842.75 1881.93C5850.88 1896.97 5863.09 1920.11 5870.07 1933.42C5877.04 1946.73 5882.85 1962.92 5882.85 1969.87C5883.44 1976.23 5885.76 1983.75 5888.09 1987.22C5906.11 2007.47 5907.27 2072.85 5906.69 3494.32C5906.69 4872.98 5905.52 4949.34 5889.83 4989.26C5884.02 5003.73 5860.19 5052.9 5849.14 5071.99C5837.52 5093.4 5756.72 5175.55 5720.1 5203.9C5692.2 5225.31 5514.91 5333.49 5507.93 5333.49C5506.19 5333.49 5488.75 5343.33 5468.99 5356.06C5449.22 5368.21 5370.17 5415.07 5293.44 5460.19C5216.71 5505.32 5149.87 5544.66 5145.22 5547.55C5124.29 5560.28 5061.51 5597.31 5047.56 5605.41C5003.97 5630.86 4995.83 5635.49 4979.55 5645.9C4970.25 5652.27 4958.05 5659.21 4953.4 5661.53C4948.75 5663.84 4892.36 5696.24 4828.42 5734.42C4764.48 5772.03 4700.54 5809.63 4686.01 5817.73C4630.79 5848.39 4146.59 6132.46 4113.45 6153.86C4107.06 6157.33 4097.76 6162.54 4093.11 6164.85C4088.46 6167.17 4046.61 6191.47 4000.11 6218.66C3953.6 6246.43 3900.13 6277.09 3880.94 6287.5C3861.76 6297.92 3836.77 6312.38 3825.72 6319.9C3806.54 6332.05 3692.03 6399.74 3645.53 6425.2C3624.02 6437.35 3439.18 6544.95 3424.64 6554.21C3407.21 6565.2 3316.53 6608.02 3288.04 6619.01C3178.18 6661.82 3021.82 6661.82 2908.47 6619.01C2873.6 6605.7 2748.62 6540.91 2709.68 6516.03C2673.06 6492.89 2671.89 6491.73 2562.61 6428.67C2509.14 6397.43 2448.68 6362.14 2428.92 6350.57C2409.16 6338.99 2388.81 6327.42 2384.16 6325.11C2377.19 6321.64 2300.46 6276.51 2192.34 6212.87C2187.69 6209.98 2155.14 6191.47 2119.68 6171.8C2084.81 6152.13 2052.25 6133.03 2047.6 6129.56C2043.54 6126.09 2026.1 6115.1 2009.24 6105.84C1992.38 6096.01 1964.48 6080.39 1947.04 6070.55C1916.24 6052.62 1763.36 5963.52 1726.74 5941.54C1715.7 5935.17 1695.35 5923.03 1680.82 5914.93C1666.29 5906.83 1650.59 5897.57 1645.94 5894.68C1625.6 5881.95 1517.48 5819.47 1515.16 5819.47C1513.99 5819.47 1501.79 5812.52 1487.84 5803.27C1449.47 5778.97 1441.33 5774.34 1417.5 5761.61C1405.3 5754.67 1350.66 5722.85 1295.43 5690.45C1240.21 5657.48 1172.2 5616.98 1143.14 5600.78C1114.66 5584 1086.76 5567.8 1082.11 5564.91C1067.58 5556.23 925.163 5472.92 881.567 5448.04C859.479 5434.74 833.903 5419.7 825.184 5413.91C816.465 5407.55 808.327 5402.92 807.164 5402.92C805.42 5402.92 758.918 5375.73 702.535 5342.75C646.732 5309.77 585.699 5274.48 567.098 5264.07C457.818 5203.9 382.834 5143.15 337.494 5078.36C313.662 5043.07 285.761 4985.21 285.761 4969.59C285.761 4964.39 281.692 4949.92 277.042 4937.19C270.066 4917.52 268.904 4715.61 268.323 3495.47C268.323 2488.24 270.066 2072.27 274.717 2060.7C278.204 2052.02 282.854 2032.93 285.761 2018.46C290.992 1988.96 312.499 1929.95 325.288 1908.54C387.484 1805.56 442.705 1758.12 619.994 1655.72C658.358 1633.74 700.791 1608.28 714.16 1600.18C728.111 1591.5 740.318 1584.56 741.48 1584.56C743.224 1584.56 765.894 1571.25 792.632 1555.05C819.371 1538.28 850.179 1519.76 861.223 1513.98C872.267 1507.61 908.887 1486.21 942.601 1465.96C976.315 1446.29 1043.74 1405.79 1092.57 1376.86C1141.4 1347.94 1182.09 1324.22 1183.25 1324.22C1184.41 1324.22 1237.31 1293.55 1300.67 1255.95C1364.61 1218.34 1420.41 1185.95 1425.06 1183.63C1429.71 1181.32 1441.92 1174.38 1451.8 1168.59C1461.68 1162.23 1518.06 1129.83 1576.77 1095.69C1635.48 1060.98 1690.7 1028.58 1699.42 1022.8C1708.14 1016.43 1716.86 1011.81 1718.6 1011.81C1720.35 1011.81 1808.7 960.316 1915.07 896.676C2020.87 833.616 2117.36 776.34 2128.4 770.555C2157.47 754.356 2360.33 634.02 2419.04 598.15C2446.36 581.372 2481.82 560.545 2497.51 552.445C2513.79 543.767 2541.11 528.147 2558.54 517.155C2575.98 506.162 2594.58 495.17 2599.23 492.856C2606.79 489.385 2766.64 396.24 2791.05 381.198C2904.98 311.195 3030.54 284.003 3165.98 300.202Z" stroke="white" stroke-width="60" mask="url(#path-17-outside-1_66_3)"/>
</svg>
