<?xml version="1.0" encoding="UTF-8"?>
<svg version="1.1" xmlns="http://www.w3.org/2000/svg" width="1200" height="1200">
<path d="M0 0 C1.7845182 -0.01052147 1.7845182 -0.01052147 3.60508728 -0.02125549 C7.42686789 -0.03867669 11.24849363 -0.04510845 15.0703125 -0.046875 C17.02715469 -0.04788712 17.02715469 -0.04788712 19.02352905 -0.04891968 C37.94328175 -0.03334786 56.46552675 0.32399627 75.1953125 3.203125 C76.36513672 3.37473145 77.53496094 3.54633789 78.74023438 3.72314453 C126.82064461 10.90440175 173.04759865 25.93609288 216.23876953 48.19824219 C218.21717263 49.21435239 220.20396789 50.21263675 222.19140625 51.2109375 C245.15132688 62.89479746 266.59821745 77.79243326 286.63134766 93.94335938 C288.09890035 95.12546551 289.57457012 96.29747441 291.05078125 97.46875 C297.30439105 102.48607619 303.20484158 107.81455559 309.05859375 113.28515625 C311.8174311 115.8625906 314.62266215 118.3830612 317.4453125 120.890625 C324.15075189 126.91139229 330.46997256 133.21669353 336.33203125 140.0625 C338.48418027 142.53498986 340.71511969 144.92583857 342.9453125 147.328125 C348.20289235 153.10193248 353.03102278 159.14948301 357.77441406 165.34960938 C359.18403167 167.18840953 360.60723668 169.01608706 362.03125 170.84375 C375.17185209 187.86750873 386.54716201 206.10820343 396.93310547 224.92089844 C398.03955793 226.92150145 399.16293245 228.91111332 400.29296875 230.8984375 C430.88740447 286.05637295 449.14816601 353.72295444 449.3984375 417.0078125 C449.40545181 418.1974913 449.41246613 419.3871701 449.41969299 420.61289978 C449.43711419 424.43468039 449.44354595 428.25630613 449.4453125 432.078125 C449.44632462 434.03496719 449.44632462 434.03496719 449.44735718 436.03134155 C449.43178067 454.95679478 449.05197033 473.46605949 446.1953125 492.203125 C446.03434082 493.33572754 445.87336914 494.46833008 445.70751953 495.63525391 C439.65722194 537.59212069 427.49679017 578.952141 409.1953125 617.203125 C408.65116699 618.34362305 408.10702148 619.48412109 407.54638672 620.65917969 C393.94143164 648.95963662 377.89147146 675.67889709 358.1953125 700.203125 C357.70353516 700.82348633 357.21175781 701.44384766 356.70507812 702.08300781 C349.65442753 710.97654064 342.33428713 719.49401056 334.55029297 727.75097656 C332.49764567 729.95082271 330.50513963 732.2031031 328.5078125 734.453125 C322.48704521 741.15856439 316.18174397 747.47778506 309.3359375 753.33984375 C306.86344764 755.49199277 304.47259893 757.72293219 302.0703125 759.953125 C295.7162119 765.73274527 289.03731825 771.01503081 282.1953125 776.203125 C281.46747559 776.75548828 280.73963867 777.30785156 279.98974609 777.87695312 C269.03018449 786.15617459 257.85967818 793.95089466 246.1953125 801.203125 C245.59895996 801.57711426 245.00260742 801.95110352 244.38818359 802.33642578 C182.0285145 841.29593901 106.43598004 866.11342417 32.390625 866.40625 C31.2009462 866.41326431 30.0112674 866.42027863 28.78553772 866.42750549 C24.96375711 866.44492669 21.14213137 866.45135845 17.3203125 866.453125 C15.36347031 866.45413712 15.36347031 866.45413712 13.36709595 866.45516968 C-5.55835728 866.43959317 -24.06762199 866.05978283 -42.8046875 863.203125 C-43.93729004 863.04215332 -45.06989258 862.88118164 -46.23681641 862.71533203 C-84.2886072 857.22815732 -121.58358835 846.5769699 -156.8046875 831.203125 C-158.25222412 830.57301514 -158.25222412 830.57301514 -159.72900391 829.93017578 C-194.37961043 814.72720103 -226.4111792 795.02968097 -255.8046875 771.203125 C-256.743125 770.45804688 -257.6815625 769.71296875 -258.6484375 768.9453125 C-264.90755254 763.92722889 -270.81078305 758.5949032 -276.66796875 753.12109375 C-279.4268061 750.5436594 -282.23203715 748.0231888 -285.0546875 745.515625 C-291.76012689 739.49485771 -298.07934756 733.18955647 -303.94140625 726.34375 C-306.09355527 723.87126014 -308.32449469 721.48041143 -310.5546875 719.078125 C-315.81226735 713.30431752 -320.64039778 707.25676699 -325.38378906 701.05664062 C-326.79340667 699.21784047 -328.21661168 697.39016294 -329.640625 695.5625 C-343.31112288 677.85225688 -355.091097 658.82344361 -365.8046875 639.203125 C-366.42778809 638.06713867 -367.05088867 636.93115234 -367.69287109 635.76074219 C-372.37298886 627.15792747 -376.63908464 618.43113646 -380.5546875 609.453125 C-380.84983246 608.77737427 -381.14497742 608.10162354 -381.44906616 607.40539551 C-397.42461273 570.60638127 -408.16047198 531.91602879 -413.8046875 492.203125 C-414.04807861 490.60670166 -414.04807861 490.60670166 -414.29638672 488.97802734 C-419.78110741 451.87550501 -419.45473668 411.2622857 -413.8046875 374.203125 C-413.64371582 373.07052246 -413.48274414 371.93791992 -413.31689453 370.77099609 C-407.26137968 328.77794933 -395.05113493 287.51263939 -376.8046875 249.203125 C-376.4442334 248.44596191 -376.0837793 247.68879883 -375.71240234 246.90869141 C-373.81724031 242.96700816 -371.85375081 239.06594091 -369.83349609 235.18701172 C-368.71169502 233.02380443 -367.61189557 230.85006002 -366.51171875 228.67578125 C-360.59152442 217.0821667 -353.9769101 206.06317578 -346.8046875 195.203125 C-346.34449219 194.50590332 -345.88429688 193.80868164 -345.41015625 193.09033203 C-332.68384964 173.94127485 -318.32530006 156.14858068 -302.8046875 139.203125 C-302.33385742 138.68717773 -301.86302734 138.17123047 -301.37792969 137.63964844 C-293.57398832 129.09295253 -285.77530955 120.64975596 -276.98046875 113.1015625 C-274.49816552 110.93567495 -272.09413605 108.69435543 -269.6796875 106.453125 C-263.90588002 101.19554515 -257.85832949 96.36741472 -251.65820312 91.62402344 C-249.81940297 90.21440583 -247.99172544 88.79120082 -246.1640625 87.3671875 C-229.14030377 74.22658541 -210.89960907 62.85127549 -192.08691406 52.46533203 C-190.08631105 51.35887957 -188.09669918 50.23550505 -186.109375 49.10546875 C-130.76844323 18.40953051 -63.40482463 0.25074592 0 0 Z M-185.8046875 238.203125 C-195.87300904 251.04891456 -198.17027282 264.31200478 -196.8046875 280.203125 C-194.78620145 293.24821668 -186.57941363 305.06558835 -176.1796875 312.890625 C-164.71799121 320.54928139 -151.42118125 323.94286011 -137.77734375 321.70703125 C-123.40221266 318.43238749 -112.02310959 311.36320502 -103.59765625 299.1875 C-96.06584862 286.65089645 -94.07198788 273.55377591 -96.265625 259.18359375 C-100.06360669 245.3544722 -108.70198502 234.03450855 -120.92578125 226.70703125 C-143.56125054 214.88253237 -168.4850429 219.46480644 -185.8046875 238.203125 Z M46.03515625 390.9140625 C42.48967418 395.10258889 42.48967418 395.10258889 41.1953125 400.203125 C40.2053125 400.203125 39.2153125 400.203125 38.1953125 400.203125 C38.1953125 387.333125 38.1953125 374.463125 38.1953125 361.203125 C10.1453125 361.203125 -17.9046875 361.203125 -46.8046875 361.203125 C-46.8046875 455.253125 -46.8046875 549.303125 -46.8046875 646.203125 C-17.7646875 646.203125 11.2753125 646.203125 41.1953125 646.203125 C41.26878906 629.57228516 41.26878906 629.57228516 41.34375 612.60546875 C41.37915235 605.5644455 41.41504265 598.52343029 41.453125 591.48242188 C41.51342649 580.31666934 41.57178574 569.15093181 41.6171875 557.98510742 C41.65027017 549.8512229 41.69018948 541.71740459 41.73810256 533.58359343 C41.76320688 529.28227888 41.78503426 524.98100733 41.79865646 520.67963982 C41.81162435 516.61913781 41.83383207 512.55878453 41.86269569 508.4983654 C41.87165787 507.01951725 41.87743458 505.54064522 41.87952614 504.06177139 C41.91397651 483.376277 43.87782863 460.14026686 58.6953125 444.3125 C69.22763628 435.42585181 81.73627359 432.84414152 95.1328125 432.890625 C96.05771484 432.87451172 96.98261719 432.85839844 97.93554688 432.84179688 C108.38383313 432.83447502 117.9496747 435.63090633 126.1953125 442.203125 C140.4952844 457.00397157 141.48834832 478.38452491 141.51416016 497.82543945 C141.52348067 499.45295701 141.53365242 501.08046988 141.54460144 502.70797729 C141.57167646 507.08515718 141.58698333 511.46230529 141.60002947 515.83954644 C141.61575953 520.42929707 141.64251775 525.01898374 141.6680603 529.60868835 C141.71467449 538.28160156 141.75150211 546.95452703 141.78473318 555.62750071 C141.83026093 567.36025502 141.89106987 579.09292976 141.95098114 590.82561779 C142.04484067 609.28474679 142.11842435 627.74389943 142.1953125 646.203125 C171.2353125 646.203125 200.2753125 646.203125 230.1953125 646.203125 C230.25365935 615.28125508 230.25365935 615.28125508 230.29296875 584.359375 C230.30479826 571.73468384 230.31864258 559.11001953 230.34619141 546.48535156 C230.36625263 537.2875358 230.37905884 528.08974199 230.38348949 518.89190495 C230.38607552 514.0308638 230.39206557 509.16988543 230.40677261 504.30886459 C230.89861891 436.7233706 230.89861891 436.7233706 199.21875 379.06640625 C188.10134058 368.17863512 174.07822017 362.07698528 159.1953125 358.203125 C157.47248047 357.75066406 157.47248047 357.75066406 155.71484375 357.2890625 C145.88049088 355.14375005 136.09697097 354.88548558 126.0703125 354.828125 C125.06174698 354.81634216 125.06174698 354.81634216 124.0328064 354.80432129 C91.97675365 354.51320014 67.06691311 367.49322339 46.03515625 390.9140625 Z M-190.8046875 361.203125 C-190.8046875 455.253125 -190.8046875 549.303125 -190.8046875 646.203125 C-161.7646875 646.203125 -132.7246875 646.203125 -102.8046875 646.203125 C-102.8046875 552.153125 -102.8046875 458.103125 -102.8046875 361.203125 C-131.8446875 361.203125 -160.8846875 361.203125 -190.8046875 361.203125 Z " fill="#FFFFFF" transform="translate(583.8046875,166.796875)"/>
</svg>
